<?xml version="1.0" encoding="utf-8"?>
<!-- Generator: Adobe Illustrator 20.1.0, SVG Export Plug-In . SVG Version: 6.00 Build 0)  -->
<!DOCTYPE svg PUBLIC "-//W3C//DTD SVG 1.1//EN" "http://www.w3.org/Graphics/SVG/1.1/DTD/svg11.dtd" [
	<!ENTITY st0 "fill:#FFFFFF;stroke:#F7F6F6;stroke-miterlimit:10;">
	<!ENTITY st1 "fill:none;stroke:#F7F6F6;stroke-miterlimit:10;">
	<!ENTITY st2 "enable-background:new    ;">
	<!ENTITY st3 "fill:#434343;">
	<!ENTITY st4 "fill:#595A5C;">
	<!ENTITY st5 "opacity:0.33;fill:url(#SVGID_1_);enable-background:new    ;">
	<!ENTITY st6 "fill:none;">
	<!ENTITY st7 "opacity:0.33;fill:url(#SVGID_2_);enable-background:new    ;">
	<!ENTITY st8 "opacity:0.33;fill:url(#SVGID_3_);enable-background:new    ;">
	<!ENTITY st9 "fill:none;stroke:#56575B;stroke-width:0.5;stroke-miterlimit:10;">
	<!ENTITY st10 "opacity:0.33;fill:url(#SVGID_4_);enable-background:new    ;">
	<!ENTITY st11 "opacity:0.33;fill:url(#SVGID_5_);enable-background:new    ;">
	<!ENTITY st12 "opacity:0.33;fill:url(#SVGID_6_);enable-background:new    ;">
	<!ENTITY st13 "opacity:0.33;fill:url(#SVGID_7_);enable-background:new    ;">
	<!ENTITY st14 "opacity:0.33;fill:url(#SVGID_8_);enable-background:new    ;">
	<!ENTITY st15 "opacity:0.33;fill:url(#SVGID_9_);enable-background:new    ;">
	<!ENTITY st16 "opacity:0.33;fill:url(#SVGID_10_);enable-background:new    ;">
	<!ENTITY st17 "opacity:0.33;fill:url(#SVGID_11_);enable-background:new    ;">
	<!ENTITY st18 "opacity:0.33;fill:url(#SVGID_12_);enable-background:new    ;">
	<!ENTITY st19 "opacity:0.33;fill:url(#SVGID_13_);enable-background:new    ;">
	<!ENTITY st20 "opacity:0.33;fill:url(#SVGID_14_);enable-background:new    ;">
	<!ENTITY st21 "opacity:0.33;fill:url(#SVGID_15_);enable-background:new    ;">
	<!ENTITY st22 "opacity:0.33;fill:url(#SVGID_16_);enable-background:new    ;">
	<!ENTITY st23 "opacity:0.33;fill:url(#SVGID_17_);enable-background:new    ;">
	<!ENTITY st24 "fill:none;stroke:#929497;stroke-width:0.8449;stroke-miterlimit:10;">
	<!ENTITY st25 "fill:none;stroke:#E4E4E4;stroke-width:2;stroke-miterlimit:10;">
	<!ENTITY st26 "fill:#FFFFFF;">
]>
<svg version="1.1" id="Layer_1" xmlns="http://www.w3.org/2000/svg" xmlns:xlink="http://www.w3.org/1999/xlink" x="0px" y="0px"
	 viewBox="0 0 474 315.6" style="enable-background:new 0 0 474 315.6;" xml:space="preserve">
<g id="Layer_1_1_">
	<rect x="32" y="2.8" style="&st0;" width="440.9" height="285.3"/>
	<line style="&st1;" x1="32" y1="244.7" x2="472.9" y2="244.7"/>
	<line style="&st1;" x1="32" y1="266.7" x2="472.9" y2="266.7"/>
	<line style="&st1;" x1="54.1" y1="288.1" x2="54.1" y2="222.7"/>
	<line style="&st1;" x1="76.1" y1="288.1" x2="76.1" y2="222.7"/>
	<line style="&st1;" x1="98.1" y1="288.1" x2="98.1" y2="222.7"/>
	<line style="&st1;" x1="120.1" y1="288.1" x2="120.1" y2="222.7"/>
	<line style="&st1;" x1="142.2" y1="288.1" x2="142.2" y2="222.7"/>
	<line style="&st1;" x1="164.2" y1="288.1" x2="164.2" y2="222.7"/>
	<line style="&st1;" x1="186.2" y1="288.1" x2="186.2" y2="222.7"/>
	<line style="&st1;" x1="208.2" y1="288.1" x2="208.2" y2="222.7"/>
	<line style="&st1;" x1="230.3" y1="288.1" x2="230.3" y2="222.7"/>
	<line style="&st1;" x1="252.3" y1="288.1" x2="252.3" y2="222.7"/>
	<line style="&st1;" x1="274.3" y1="288.1" x2="274.3" y2="222.7"/>
	<line style="&st1;" x1="296.3" y1="288.1" x2="296.3" y2="222.7"/>
	<line style="&st1;" x1="318.4" y1="288.1" x2="318.4" y2="222.7"/>
	<line style="&st1;" x1="340.4" y1="288.1" x2="340.4" y2="222.7"/>
	<line style="&st1;" x1="362.4" y1="288.1" x2="362.4" y2="222.7"/>
	<line style="&st1;" x1="384.4" y1="288.1" x2="384.4" y2="222.7"/>
	<line style="&st1;" x1="406.5" y1="288.1" x2="406.5" y2="222.7"/>
	<line style="&st1;" x1="428.5" y1="288.1" x2="428.5" y2="222.7"/>
	<line style="&st1;" x1="450.5" y1="288.1" x2="450.5" y2="222.7"/>
	<line style="&st1;" x1="32" y1="24.5" x2="472.9" y2="24.5"/>
	<line style="&st1;" x1="32" y1="46.5" x2="472.9" y2="46.5"/>
	<line style="&st1;" x1="32" y1="68.5" x2="472.9" y2="68.5"/>
	<line style="&st1;" x1="32" y1="90.5" x2="472.9" y2="90.5"/>
	<line style="&st1;" x1="32" y1="112.6" x2="472.9" y2="112.6"/>
	<line style="&st1;" x1="32" y1="134.6" x2="472.9" y2="134.6"/>
	<line style="&st1;" x1="32" y1="157.1" x2="472.9" y2="157.1"/>
	<line style="&st1;" x1="32" y1="178.6" x2="472.9" y2="178.6"/>
	<line style="&st1;" x1="32" y1="200.7" x2="472.9" y2="200.7"/>
	<line style="&st1;" x1="32" y1="222.7" x2="472.9" y2="222.7"/>
	<line style="&st1;" x1="54.1" y1="231.5" x2="54.1" y2="2.8"/>
	<line style="&st1;" x1="76.1" y1="231.5" x2="76.1" y2="2.8"/>
	<line style="&st1;" x1="98.1" y1="231.5" x2="98.1" y2="2.8"/>
	<line style="&st1;" x1="120.1" y1="231.5" x2="120.1" y2="2.8"/>
	<line style="&st1;" x1="142.2" y1="231.5" x2="142.2" y2="2.8"/>
	<line style="&st1;" x1="164.2" y1="231.5" x2="164.2" y2="2.8"/>
	<line style="&st1;" x1="186.2" y1="231.5" x2="186.2" y2="2.8"/>
	<line style="&st1;" x1="208.2" y1="231.5" x2="208.2" y2="2.8"/>
	<line style="&st1;" x1="230.3" y1="231.5" x2="230.3" y2="2.8"/>
	<line style="&st1;" x1="252.3" y1="231.5" x2="252.3" y2="2.8"/>
	<line style="&st1;" x1="274.3" y1="231.5" x2="274.3" y2="2.8"/>
	<line style="&st1;" x1="296.3" y1="231.5" x2="296.3" y2="2.8"/>
	<line style="&st1;" x1="318.4" y1="231.5" x2="318.4" y2="2.8"/>
	<line style="&st1;" x1="340.4" y1="231.5" x2="340.4" y2="2.8"/>
	<line style="&st1;" x1="362.4" y1="231.5" x2="362.4" y2="2.8"/>
	<line style="&st1;" x1="384.4" y1="231.5" x2="384.4" y2="2.8"/>
	<line style="&st1;" x1="406.5" y1="231.5" x2="406.5" y2="2.8"/>
	<line style="&st1;" x1="428.5" y1="231.5" x2="428.5" y2="2.8"/>
	<line style="&st1;" x1="450.5" y1="231.5" x2="450.5" y2="2.8"/>
	<g style="&st2;">
		<path style="&st3;" d="M241.806,312.353h-1.328V302.11h-3.617v-1.18h8.562v1.18h-3.617L241.806,312.353L241.806,312.353z"/>
		<path style="&st3;" d="M246.837,301.47c0-0.297,0.073-0.515,0.219-0.652c0.146-0.138,0.328-0.207,0.547-0.207
			c0.208,0,0.388,0.07,0.539,0.211s0.227,0.356,0.227,0.648s-0.076,0.509-0.227,0.652c-0.151,0.144-0.331,0.215-0.539,0.215
			c-0.219,0-0.401-0.071-0.547-0.215C246.91,301.979,246.837,301.762,246.837,301.47z M248.244,312.353h-1.297v-8.562h1.297V312.353
			z"/>
		<path style="&st3;" d="M261.908,312.353v-5.57c0-0.683-0.146-1.194-0.438-1.535s-0.745-0.512-1.359-0.512
			c-0.808,0-1.404,0.231-1.789,0.695c-0.386,0.464-0.578,1.177-0.578,2.141v4.781h-1.297v-5.57c0-0.683-0.146-1.194-0.438-1.535
			c-0.292-0.341-0.748-0.512-1.367-0.512c-0.812,0-1.408,0.243-1.785,0.73c-0.378,0.487-0.566,1.285-0.566,2.395v4.492h-1.297
			v-8.562h1.055l0.211,1.172h0.062c0.245-0.417,0.59-0.742,1.035-0.977s0.944-0.352,1.496-0.352c1.338,0,2.213,0.484,2.625,1.453
			h0.062c0.255-0.448,0.625-0.802,1.109-1.062s1.036-0.391,1.656-0.391c0.969,0,1.694,0.249,2.176,0.746
			c0.481,0.497,0.723,1.293,0.723,2.387v5.586H261.908z"/>
		<path style="&st3;" d="M269.494,312.509c-1.266,0-2.265-0.386-2.996-1.156c-0.732-0.771-1.098-1.841-1.098-3.211
			c0-1.38,0.34-2.477,1.02-3.289s1.592-1.219,2.738-1.219c1.073,0,1.922,0.353,2.547,1.059s0.938,1.637,0.938,2.793v0.82h-5.898
			c0.026,1.005,0.28,1.769,0.762,2.289c0.481,0.521,1.16,0.781,2.035,0.781c0.922,0,1.833-0.192,2.734-0.578v1.156
			c-0.458,0.198-0.892,0.34-1.301,0.426C270.565,312.466,270.072,312.509,269.494,312.509z M269.142,304.72
			c-0.688,0-1.236,0.224-1.645,0.672s-0.65,1.067-0.723,1.859h4.477c0-0.817-0.183-1.444-0.547-1.879
			C270.34,304.938,269.819,304.72,269.142,304.72z"/>
	</g>
	<g style="&st2;">
		<path style="&st3;" d="M10.438,170.538h4.75v1.328H3.766v-3.133c0-1.401,0.269-2.437,0.805-3.105s1.344-1.004,2.422-1.004
			c1.511,0,2.531,0.766,3.062,2.297l5.133-3.102v1.57l-4.75,2.766V170.538z M9.297,170.538v-1.82c0-0.938-0.187-1.625-0.559-2.062
			S7.807,166,7.062,166c-0.755,0-1.3,0.223-1.633,0.668s-0.5,1.16-0.5,2.145v1.727h4.368V170.538z"/>
		<path style="&st3;" d="M15.344,158.554c0,1.266-0.386,2.265-1.156,2.996s-1.841,1.098-3.211,1.098c-1.38,0-2.477-0.34-3.289-1.02
			s-1.219-1.593-1.219-2.738c0-1.073,0.353-1.922,1.059-2.547s1.637-0.938,2.793-0.938h0.82v5.898
			c1.005-0.026,1.769-0.28,2.289-0.762s0.781-1.16,0.781-2.035c0-0.922-0.192-1.833-0.578-2.734h1.156
			c0.198,0.458,0.34,0.892,0.426,1.301C15.301,157.482,15.344,157.976,15.344,158.554z M7.555,158.905
			c0,0.688,0.224,1.235,0.672,1.645c0.448,0.41,1.067,0.649,1.859,0.723v-4.477c-0.817,0-1.444,0.183-1.879,0.547
			C7.772,157.708,7.555,158.229,7.555,158.905z"/>
		<path style="&st3;" d="M12.852,147.671c0.797,0,1.411,0.297,1.844,0.891s0.648,1.427,0.648,2.5c0,1.136-0.18,2.021-0.539,2.656
			h-1.203c0.208-0.411,0.372-0.853,0.492-1.324c0.12-0.471,0.18-0.926,0.18-1.363c0-0.677-0.108-1.198-0.324-1.562
			c-0.216-0.364-0.546-0.547-0.988-0.547c-0.333,0-0.618,0.145-0.855,0.434s-0.517,0.853-0.84,1.691
			c-0.297,0.797-0.556,1.363-0.777,1.699s-0.473,0.586-0.754,0.75s-0.617,0.246-1.008,0.246c-0.698,0-1.249-0.284-1.652-0.852
			c-0.403-0.567-0.605-1.346-0.605-2.336c0-0.922,0.188-1.823,0.562-2.703l1.055,0.461c-0.354,0.859-0.531,1.638-0.531,2.336
			c0,0.615,0.097,1.078,0.289,1.391s0.458,0.469,0.797,0.469c0.229,0,0.425-0.059,0.586-0.176s0.315-0.306,0.461-0.566
			c0.146-0.26,0.356-0.76,0.633-1.5c0.37-1.016,0.742-1.702,1.117-2.059C11.812,147.85,12.284,147.671,12.852,147.671z"/>
		<path style="&st3;" d="M10.898,138.171c1.396,0,2.485,0.352,3.27,1.055s1.176,1.675,1.176,2.914c0,0.766-0.18,1.445-0.539,2.039
			s-0.875,1.052-1.547,1.375s-1.458,0.484-2.359,0.484c-1.396,0-2.483-0.349-3.262-1.047c-0.778-0.698-1.168-1.667-1.168-2.906
			c0-1.198,0.398-2.149,1.195-2.855C8.461,138.524,9.539,138.171,10.898,138.171z M10.898,144.694c1.094,0,1.927-0.219,2.5-0.656
			s0.859-1.081,0.859-1.93s-0.285-1.493-0.855-1.934c-0.57-0.44-1.405-0.66-2.504-0.66c-1.089,0-1.915,0.22-2.48,0.66
			s-0.848,1.09-0.848,1.949c0,0.849,0.278,1.49,0.836,1.922C8.964,144.479,9.794,144.694,10.898,144.694z"/>
		<path style="&st3;" d="M6.625,134.679h5.555c0.698,0,1.219-0.159,1.562-0.477c0.344-0.317,0.516-0.815,0.516-1.492
			c0-0.896-0.245-1.551-0.734-1.965s-1.289-0.621-2.398-0.621h-4.5v-1.297h8.562v1.07l-1.148,0.188v0.07
			c0.422,0.266,0.745,0.634,0.969,1.105c0.224,0.472,0.336,1.009,0.336,1.613c0,1.042-0.247,1.822-0.742,2.34
			c-0.495,0.519-1.286,0.777-2.375,0.777H6.625V134.679z"/>
		<path style="&st3;" d="M6.469,122.171c0-0.38,0.031-0.721,0.094-1.023l1.203,0.18c-0.078,0.354-0.117,0.667-0.117,0.938
			c0,0.693,0.281,1.285,0.844,1.777s1.263,0.738,2.102,0.738h4.594v1.297H6.625v-1.07l1.586-0.148v-0.062
			c-0.558-0.317-0.987-0.7-1.289-1.148C6.62,123.2,6.469,122.708,6.469,122.171z"/>
		<path style="&st3;" d="M15.344,116.124c0,1.24-0.382,2.199-1.145,2.879s-1.843,1.02-3.238,1.02c-1.433,0-2.539-0.345-3.32-1.035
			c-0.781-0.69-1.172-1.673-1.172-2.949c0-0.411,0.044-0.823,0.133-1.234c0.089-0.411,0.192-0.734,0.312-0.969l1.102,0.398
			c-0.114,0.287-0.21,0.599-0.285,0.938c-0.075,0.339-0.113,0.638-0.113,0.898c0,1.74,1.109,2.609,3.328,2.609
			c1.052,0,1.859-0.212,2.422-0.637c0.562-0.424,0.844-1.053,0.844-1.887c0-0.713-0.153-1.445-0.461-2.195h1.148
			C15.195,114.533,15.344,115.254,15.344,116.124z"/>
		<path style="&st3;" d="M15.344,108.312c0,1.266-0.386,2.265-1.156,2.996c-0.771,0.732-1.841,1.098-3.211,1.098
			c-1.38,0-2.477-0.34-3.289-1.02s-1.219-1.592-1.219-2.738c0-1.073,0.353-1.922,1.059-2.547s1.637-0.938,2.793-0.938h0.82v5.898
			c1.005-0.026,1.769-0.28,2.289-0.762c0.521-0.481,0.781-1.16,0.781-2.035c0-0.922-0.192-1.833-0.578-2.734h1.156
			c0.198,0.458,0.34,0.892,0.426,1.301C15.301,107.24,15.344,107.733,15.344,108.312z M7.555,108.663
			c0,0.688,0.224,1.236,0.672,1.645c0.448,0.409,1.067,0.65,1.859,0.723v-4.477c-0.817,0-1.444,0.183-1.879,0.547
			C7.772,107.465,7.555,107.986,7.555,108.663z"/>
	</g>
	<g style="&st2;">
		<path style="&st4;" d="M222.658,45.281h-2.344v-6.436h-6.582v6.436h-2.334V31.004h2.334v5.84h6.582v-5.84h2.344V45.281z"/>
		<path style="&st4;" d="M231.35,45.281h-2.334V33.006h-4.199v-2.002h10.732v2.002h-4.199L231.35,45.281L231.35,45.281z"/>
		<path style="&st4;" d="M242.668,45.281h-2.334V33.006h-4.199v-2.002h10.732v2.002h-4.199L242.668,45.281L242.668,45.281z"/>
		<path style="&st4;" d="M258.508,35.32c0,1.491-0.488,2.634-1.465,3.428s-2.367,1.191-4.17,1.191h-1.484v5.342h-2.334V31.004h4.111
			c1.784,0,3.12,0.364,4.009,1.094S258.508,33.901,258.508,35.32z M251.389,37.977h1.24c1.198,0,2.077-0.208,2.637-0.625
			s0.84-1.067,0.84-1.953c0-0.82-0.25-1.433-0.752-1.836s-1.283-0.605-2.344-0.605h-1.621L251.389,37.977L251.389,37.977z"/>
		<path style="&st4;" d="M272.287,45.281h-2.295v-9.219c0-1.101,0.026-1.973,0.078-2.617c-0.15,0.156-0.333,0.329-0.552,0.518
			s-0.949,0.788-2.192,1.797l-1.152-1.455l4.199-3.301h1.914V45.281z"/>
		<path style="&st4;" d="M277.385,44.061c0-0.476,0.124-0.84,0.371-1.094s0.605-0.381,1.074-0.381c0.475,0,0.836,0.132,1.084,0.396
			s0.371,0.623,0.371,1.079c0,0.462-0.125,0.828-0.376,1.099s-0.61,0.405-1.079,0.405s-0.827-0.134-1.074-0.4
			S277.385,44.529,277.385,44.061z"/>
		<path style="&st4;" d="M289.201,45.281h-2.295v-9.219c0-1.101,0.026-1.973,0.078-2.617c-0.15,0.156-0.333,0.329-0.552,0.518
			s-0.949,0.788-2.192,1.797l-1.152-1.455l4.199-3.301h1.914V45.281z"/>
	</g>
	
		<linearGradient id="SVGID_1_" gradientUnits="userSpaceOnUse" x1="186.15" y1="516.95" x2="273.95" y2="429.15" gradientTransform="matrix(1 0 0 1 0 -294)">
		<stop  offset="0" style="stop-color:#77C3E2"/>
		<stop  offset="1" style="stop-color:#83CAA6"/>
	</linearGradient>
	<rect x="164.1" y="157.2" style="&st5;" width="131.9" height="43.7"/>
	<rect x="183.3" y="172.4" style="&st6;" width="124.1" height="17"/>
	
		<linearGradient id="SVGID_2_" gradientUnits="userSpaceOnUse" x1="53.85" y1="472.65" x2="141.95" y2="384.55" gradientTransform="matrix(1 0 0 1 0 -294)">
		<stop  offset="0" style="stop-color:#77C3E2"/>
		<stop  offset="1" style="stop-color:#83CAA6"/>
	</linearGradient>
	<rect x="32" y="112.4" style="&st7;" width="131.8" height="44.4"/>
	<rect x="52.4" y="128.3" style="&st6;" width="80.3" height="15"/>
	
		<linearGradient id="SVGID_3_" gradientUnits="userSpaceOnUse" x1="318.275" y1="560.425" x2="406.075" y2="472.625" gradientTransform="matrix(1 0 0 1 0 -294)">
		<stop  offset="0" style="stop-color:#77C3E2"/>
		<stop  offset="1" style="stop-color:#83CAA6"/>
	</linearGradient>
	<rect x="296.225" y="200.675" style="&st8;" width="131.9" height="43.7"/>
	<rect x="316.3" y="217.5" style="&st6;" width="124.1" height="17"/>
	<polyline style="&st9;" points="466.1,301 472.2,307.1 466.1,313.3 	"/>
	<line style="&st9;" x1="283" y1="307.1" x2="472" y2="307.1"/>
	<line style="&st9;" x1="32.5" y1="307.1" x2="220.6" y2="307.1"/>
	<polyline style="&st9;" points="4.3,10 10.5,3.9 16.6,10 	"/>
	<line style="&st9;" x1="10.5" y1="95.7" x2="10.5" y2="4.2"/>
	<line style="&st9;" x1="10.5" y1="287.4" x2="10.5" y2="188.8"/>
	
		<linearGradient id="SVGID_4_" gradientUnits="userSpaceOnUse" x1="186.15" y1="516.95" x2="273.95" y2="429.15" gradientTransform="matrix(1 0 0 1 0 -294)">
		<stop  offset="0" style="stop-color:#77C3E2"/>
		<stop  offset="1" style="stop-color:#83CAA6"/>
	</linearGradient>
	<rect x="164.1" y="157.2" style="&st10;" width="131.9" height="43.7"/>
	
		<linearGradient id="SVGID_5_" gradientUnits="userSpaceOnUse" x1="186.15" y1="516.95" x2="273.95" y2="429.15" gradientTransform="matrix(1 0 0 1 0 -294)">
		<stop  offset="0" style="stop-color:#77C3E2"/>
		<stop  offset="1" style="stop-color:#83CAA6"/>
	</linearGradient>
	<rect x="164.1" y="157.2" style="&st11;" width="131.9" height="43.7"/>
	
		<linearGradient id="SVGID_6_" gradientUnits="userSpaceOnUse" x1="53.85" y1="472.65" x2="141.95" y2="384.55" gradientTransform="matrix(1 0 0 1 0 -294)">
		<stop  offset="0" style="stop-color:#77C3E2"/>
		<stop  offset="1" style="stop-color:#83CAA6"/>
	</linearGradient>
	<rect x="32" y="112.4" style="&st12;" width="131.8" height="44.4"/>
	
		<linearGradient id="SVGID_7_" gradientUnits="userSpaceOnUse" x1="53.85" y1="472.65" x2="141.95" y2="384.55" gradientTransform="matrix(1 0 0 1 0 -294)">
		<stop  offset="0" style="stop-color:#77C3E2"/>
		<stop  offset="1" style="stop-color:#83CAA6"/>
	</linearGradient>
	<rect x="32" y="112.4" style="&st13;" width="131.8" height="44.4"/>
	
		<linearGradient id="SVGID_8_" gradientUnits="userSpaceOnUse" x1="186.15" y1="516.95" x2="273.95" y2="429.15" gradientTransform="matrix(1 0 0 1 0 -294)">
		<stop  offset="0" style="stop-color:#77C3E2"/>
		<stop  offset="1" style="stop-color:#83CAA6"/>
	</linearGradient>
	<rect x="164.1" y="157.2" style="&st14;" width="131.9" height="43.7"/>
	
		<linearGradient id="SVGID_9_" gradientUnits="userSpaceOnUse" x1="318.275" y1="560.425" x2="406.075" y2="472.625" gradientTransform="matrix(1 0 0 1 0 -294)">
		<stop  offset="0" style="stop-color:#77C3E2"/>
		<stop  offset="1" style="stop-color:#83CAA6"/>
	</linearGradient>
	<rect x="296.225" y="200.675" style="&st15;" width="131.9" height="43.7"/>
	
		<linearGradient id="SVGID_10_" gradientUnits="userSpaceOnUse" x1="318.275" y1="560.425" x2="406.075" y2="472.625" gradientTransform="matrix(1 0 0 1 0 -294)">
		<stop  offset="0" style="stop-color:#77C3E2"/>
		<stop  offset="1" style="stop-color:#83CAA6"/>
	</linearGradient>
	<rect x="296.225" y="200.675" style="&st16;" width="131.9" height="43.7"/>
	
		<linearGradient id="SVGID_11_" gradientUnits="userSpaceOnUse" x1="318.275" y1="560.425" x2="406.075" y2="472.625" gradientTransform="matrix(1 0 0 1 0 -294)">
		<stop  offset="0" style="stop-color:#77C3E2"/>
		<stop  offset="1" style="stop-color:#83CAA6"/>
	</linearGradient>
	<rect x="296.225" y="200.675" style="&st17;" width="131.9" height="43.7"/>
	
		<linearGradient id="SVGID_12_" gradientUnits="userSpaceOnUse" x1="318.275" y1="560.425" x2="406.075" y2="472.625" gradientTransform="matrix(1 0 0 1 0 -294)">
		<stop  offset="0" style="stop-color:#77C3E2"/>
		<stop  offset="1" style="stop-color:#83CAA6"/>
	</linearGradient>
	<rect x="296.225" y="200.675" style="&st18;" width="131.9" height="43.7"/>
	
		<linearGradient id="SVGID_13_" gradientUnits="userSpaceOnUse" x1="318.275" y1="560.425" x2="406.075" y2="472.625" gradientTransform="matrix(1 0 0 1 0 -294)">
		<stop  offset="0" style="stop-color:#77C3E2"/>
		<stop  offset="1" style="stop-color:#83CAA6"/>
	</linearGradient>
	<rect x="296.225" y="200.675" style="&st19;" width="131.9" height="43.7"/>
	
		<linearGradient id="SVGID_14_" gradientUnits="userSpaceOnUse" x1="318.275" y1="560.425" x2="406.075" y2="472.625" gradientTransform="matrix(1 0 0 1 0 -294)">
		<stop  offset="0" style="stop-color:#77C3E2"/>
		<stop  offset="1" style="stop-color:#83CAA6"/>
	</linearGradient>
	<rect x="296.225" y="200.675" style="&st20;" width="131.9" height="43.7"/>
	
		<linearGradient id="SVGID_15_" gradientUnits="userSpaceOnUse" x1="186.15" y1="516.95" x2="273.95" y2="429.15" gradientTransform="matrix(1 0 0 1 0 -294)">
		<stop  offset="0" style="stop-color:#77C3E2"/>
		<stop  offset="1" style="stop-color:#83CAA6"/>
	</linearGradient>
	<rect x="164.1" y="157.2" style="&st21;" width="131.9" height="43.7"/>
	
		<linearGradient id="SVGID_16_" gradientUnits="userSpaceOnUse" x1="318.275" y1="560.425" x2="406.075" y2="472.625" gradientTransform="matrix(1 0 0 1 0 -294)">
		<stop  offset="0" style="stop-color:#77C3E2"/>
		<stop  offset="1" style="stop-color:#83CAA6"/>
	</linearGradient>
	<rect x="296.225" y="200.675" style="&st22;" width="131.9" height="43.7"/>
	
		<linearGradient id="SVGID_17_" gradientUnits="userSpaceOnUse" x1="318.275" y1="560.425" x2="406.075" y2="472.625" gradientTransform="matrix(1 0 0 1 0 -294)">
		<stop  offset="0" style="stop-color:#77C3E2"/>
		<stop  offset="1" style="stop-color:#83CAA6"/>
	</linearGradient>
	<rect x="296.225" y="200.675" style="&st23;" width="131.9" height="43.7"/>
	<line style="&st24;" x1="163.8" y1="70.1" x2="163.8" y2="288.8"/>
	<line style="&st24;" x1="295.8" y1="70.1" x2="295.8" y2="288.8"/>
	<line style="&st24;" x1="427.9" y1="70.1" x2="427.9" y2="288.8"/>
	<path style="&st25;" d="M468.9,288.1H36c-2.2,0-4-1.8-4-4V6.8c0-2.2,1.8-4,4-4h432.9c2.2,0,4,1.8,4,4v277.3
		C472.9,286.3,471.1,288.1,468.9,288.1z"/>
</g>
<g id="Layer_2">
	<g style="&st2;">
		<path style="&st26;" d="M188.408,184.745c-1.344,0-2.395-0.392-3.152-1.176s-1.137-1.863-1.137-3.238
			c0-1.411,0.352-2.521,1.055-3.328s1.669-1.211,2.898-1.211c1.141,0,2.042,0.347,2.703,1.039s0.992,1.646,0.992,2.859v0.992h-5.758
			c0.026,0.839,0.252,1.483,0.68,1.934c0.427,0.45,1.028,0.676,1.805,0.676c0.51,0,0.985-0.048,1.426-0.145
			c0.44-0.097,0.913-0.257,1.418-0.48v1.492c-0.448,0.214-0.901,0.364-1.359,0.453C189.52,184.701,188.997,184.745,188.408,184.745z
			 M188.072,177.183c-0.583,0-1.051,0.185-1.402,0.555s-0.562,0.909-0.629,1.617h3.922c-0.011-0.714-0.183-1.254-0.516-1.621
			C189.114,177.366,188.655,177.183,188.072,177.183z"/>
		<path style="&st26;" d="M195.775,180.175l-2.898-4.227h2.094l1.969,3.023l1.984-3.023h2.078l-2.906,4.227l3.055,4.414h-2.078
			l-2.133-3.234l-2.125,3.234h-2.078L195.775,180.175z"/>
		<path style="&st26;" d="M208.072,184.589l-0.367-1.203h-0.062c-0.417,0.526-0.836,0.884-1.258,1.074s-0.964,0.285-1.625,0.285
			c-0.849,0-1.512-0.229-1.988-0.688s-0.715-1.106-0.715-1.945c0-0.891,0.331-1.562,0.992-2.016c0.661-0.453,1.669-0.7,3.023-0.742
			l1.492-0.047v-0.461c0-0.552-0.129-0.965-0.387-1.238s-0.658-0.41-1.199-0.41c-0.443,0-0.867,0.065-1.273,0.195
			s-0.797,0.284-1.172,0.461l-0.594-1.312c0.469-0.245,0.981-0.431,1.539-0.559c0.557-0.128,1.083-0.191,1.578-0.191
			c1.099,0,1.928,0.239,2.488,0.719c0.56,0.479,0.84,1.231,0.84,2.258v5.82L208.072,184.589L208.072,184.589z M205.338,183.339
			c0.667,0,1.202-0.187,1.605-0.559c0.403-0.372,0.605-0.895,0.605-1.566v-0.75l-1.109,0.047c-0.865,0.031-1.494,0.176-1.887,0.434
			c-0.394,0.258-0.59,0.652-0.59,1.184c0,0.386,0.114,0.684,0.344,0.895C204.536,183.233,204.879,183.339,205.338,183.339z"/>
		<path style="&st26;" d="M219.229,184.589h-1.844v-5.328c0-0.661-0.125-1.155-0.375-1.48s-0.641-0.488-1.172-0.488
			c-0.708,0-1.228,0.23-1.559,0.691c-0.331,0.461-0.496,1.228-0.496,2.301v4.305h-1.836v-8.641h1.438l0.258,1.133h0.094
			c0.239-0.411,0.587-0.729,1.043-0.953s0.957-0.336,1.504-0.336c1.328,0,2.208,0.453,2.641,1.359h0.125
			c0.255-0.427,0.614-0.761,1.078-1c0.463-0.239,0.995-0.359,1.594-0.359c1.031,0,1.782,0.261,2.254,0.781
			c0.471,0.521,0.707,1.315,0.707,2.383v5.633h-1.836v-5.328c0-0.661-0.126-1.155-0.379-1.48c-0.253-0.325-0.645-0.488-1.176-0.488
			c-0.714,0-1.236,0.223-1.566,0.668c-0.331,0.445-0.496,1.129-0.496,2.051v4.576H219.229z"/>
		<path style="&st26;" d="M231.627,184.745c-1.094,0-1.943-0.394-2.547-1.18h-0.109c0.073,0.729,0.109,1.172,0.109,1.328v3.539
			h-1.836v-12.484h1.484c0.042,0.161,0.127,0.547,0.258,1.156h0.094c0.573-0.875,1.432-1.312,2.578-1.312
			c1.078,0,1.918,0.391,2.52,1.172s0.902,1.878,0.902,3.289s-0.306,2.513-0.918,3.305
			C233.55,184.35,232.705,184.745,231.627,184.745z M231.182,177.292c-0.729,0-1.262,0.214-1.598,0.641s-0.504,1.109-0.504,2.047
			v0.273c0,1.052,0.167,1.813,0.5,2.285s0.877,0.707,1.633,0.707c0.635,0,1.125-0.261,1.469-0.781s0.516-1.263,0.516-2.227
			c0-0.969-0.171-1.702-0.512-2.199C232.344,177.541,231.843,177.292,231.182,177.292z"/>
		<path style="&st26;" d="M239.049,184.589h-1.836v-12.156h1.836V184.589z"/>
		<path style="&st26;" d="M245.447,184.745c-1.344,0-2.395-0.392-3.152-1.176s-1.137-1.863-1.137-3.238
			c0-1.411,0.352-2.521,1.055-3.328s1.669-1.211,2.898-1.211c1.141,0,2.042,0.347,2.703,1.039s0.992,1.646,0.992,2.859v0.992h-5.758
			c0.026,0.839,0.252,1.483,0.68,1.934c0.427,0.45,1.028,0.676,1.805,0.676c0.51,0,0.985-0.048,1.426-0.145
			c0.44-0.097,0.913-0.257,1.418-0.48v1.492c-0.448,0.214-0.901,0.364-1.359,0.453C246.559,184.701,246.036,184.745,245.447,184.745
			z M245.111,177.183c-0.583,0-1.051,0.185-1.402,0.555s-0.562,0.909-0.629,1.617h3.922c-0.011-0.714-0.183-1.254-0.516-1.621
			C246.153,177.366,245.694,177.183,245.111,177.183z"/>
		<path style="&st26;" d="M250.619,183.612c0-0.38,0.099-0.672,0.297-0.875s0.484-0.305,0.859-0.305c0.38,0,0.669,0.105,0.867,0.316
			s0.297,0.499,0.297,0.863c0,0.37-0.101,0.663-0.301,0.879c-0.201,0.216-0.488,0.324-0.863,0.324s-0.662-0.106-0.859-0.32
			C250.718,184.281,250.619,183.987,250.619,183.612z"/>
		<path style="&st26;" d="M258.775,184.745c-1.308,0-2.301-0.382-2.98-1.145s-1.02-1.858-1.02-3.285c0-1.453,0.355-2.57,1.066-3.352
			c0.711-0.782,1.738-1.172,3.082-1.172c0.911,0,1.731,0.169,2.461,0.508l-0.555,1.477c-0.776-0.302-1.417-0.453-1.922-0.453
			c-1.495,0-2.242,0.992-2.242,2.977c0,0.969,0.186,1.696,0.559,2.184c0.372,0.487,0.918,0.73,1.637,0.73
			c0.817,0,1.591-0.203,2.32-0.609v1.602c-0.328,0.192-0.679,0.331-1.051,0.414C259.758,184.703,259.307,184.745,258.775,184.745z"
			/>
		<path style="&st26;" d="M269.018,182.128c0,0.844-0.308,1.491-0.922,1.941c-0.615,0.45-1.495,0.676-2.641,0.676
			c-1.151,0-2.076-0.175-2.773-0.523v-1.586c1.016,0.469,1.961,0.703,2.836,0.703c1.13,0,1.695-0.341,1.695-1.023
			c0-0.219-0.062-0.401-0.188-0.547s-0.331-0.297-0.617-0.453c-0.287-0.156-0.685-0.333-1.195-0.531
			c-0.995-0.386-1.668-0.771-2.02-1.156s-0.527-0.886-0.527-1.5c0-0.739,0.298-1.313,0.895-1.723
			c0.596-0.409,1.407-0.613,2.434-0.613c1.016,0,1.977,0.206,2.883,0.617l-0.594,1.383c-0.933-0.386-1.716-0.578-2.352-0.578
			c-0.969,0-1.453,0.276-1.453,0.828c0,0.271,0.126,0.5,0.379,0.688c0.252,0.188,0.803,0.445,1.652,0.773
			c0.713,0.276,1.231,0.528,1.555,0.758c0.323,0.229,0.562,0.493,0.719,0.793S269.018,181.711,269.018,182.128z"/>
		<path style="&st26;" d="M276.807,182.128c0,0.844-0.308,1.491-0.922,1.941c-0.615,0.45-1.495,0.676-2.641,0.676
			c-1.151,0-2.076-0.175-2.773-0.523v-1.586c1.016,0.469,1.961,0.703,2.836,0.703c1.13,0,1.695-0.341,1.695-1.023
			c0-0.219-0.062-0.401-0.188-0.547s-0.331-0.297-0.617-0.453c-0.287-0.156-0.685-0.333-1.195-0.531
			c-0.995-0.386-1.668-0.771-2.02-1.156s-0.527-0.886-0.527-1.5c0-0.739,0.298-1.313,0.895-1.723
			c0.596-0.409,1.407-0.613,2.434-0.613c1.016,0,1.977,0.206,2.883,0.617l-0.594,1.383c-0.933-0.386-1.716-0.578-2.352-0.578
			c-0.969,0-1.453,0.276-1.453,0.828c0,0.271,0.126,0.5,0.379,0.688c0.252,0.188,0.803,0.445,1.652,0.773
			c0.713,0.276,1.231,0.528,1.555,0.758c0.323,0.229,0.562,0.493,0.719,0.793S276.807,181.711,276.807,182.128z"/>
	</g>
	<g style="&st2;">
		<path style="&st26;" d="M52.826,144.297c-0.552,0-1.01-0.065-1.375-0.195v-1.453c0.354,0.094,0.716,0.141,1.086,0.141
			c0.781,0,1.172-0.442,1.172-1.328v-9.648h1.836v9.773c0,0.891-0.233,1.565-0.699,2.023
			C54.379,144.067,53.706,144.297,52.826,144.297z M53.6,129.523c0-0.328,0.09-0.581,0.27-0.758s0.436-0.266,0.77-0.266
			c0.323,0,0.574,0.089,0.754,0.266s0.27,0.43,0.27,0.758c0,0.312-0.09,0.559-0.27,0.738s-0.431,0.27-0.754,0.27
			c-0.333,0-0.59-0.09-0.77-0.27S53.6,129.836,53.6,129.523z"/>
		<path style="&st26;" d="M61.068,140.609c-1.068,0-1.904-0.392-2.508-1.176s-0.906-1.879-0.906-3.285s0.307-2.507,0.922-3.301
			c0.614-0.794,1.461-1.191,2.539-1.191c0.542,0,1.027,0.101,1.457,0.301s0.813,0.53,1.152,0.988h0.062l0.203-1.133h1.523v12.484
			H63.67v-3.664c0-0.229,0.01-0.472,0.031-0.727s0.039-0.45,0.055-0.586h-0.102C63.112,140.18,62.25,140.609,61.068,140.609z
			 M61.592,139.141c0.771,0,1.324-0.223,1.66-0.668s0.504-1.118,0.504-2.02v-0.289c0-1.067-0.173-1.836-0.52-2.305
			s-0.905-0.703-1.676-0.703c-0.656,0-1.156,0.261-1.5,0.781s-0.516,1.269-0.516,2.242
			C59.545,138.153,60.227,139.141,61.592,139.141z"/>
		<path style="&st26;" d="M74.232,140.453l-0.258-1.133H73.88c-0.255,0.401-0.619,0.716-1.09,0.945
			c-0.472,0.229-1.009,0.344-1.613,0.344c-1.047,0-1.828-0.261-2.344-0.781s-0.773-1.31-0.773-2.367v-5.648h1.852v5.328
			c0,0.661,0.135,1.157,0.406,1.488c0.271,0.331,0.695,0.496,1.273,0.496c0.771,0,1.337-0.23,1.699-0.691s0.543-1.233,0.543-2.316
			v-4.305h1.844v8.641h-1.445V140.453z"/>
		<path style="&st26;" d="M82.068,140.609c-1.344,0-2.395-0.392-3.152-1.176s-1.137-1.863-1.137-3.238
			c0-1.411,0.352-2.521,1.055-3.328s1.669-1.211,2.898-1.211c1.141,0,2.042,0.347,2.703,1.039s0.992,1.646,0.992,2.859v0.992H79.67
			c0.026,0.839,0.252,1.483,0.68,1.934c0.427,0.45,1.028,0.676,1.805,0.676c0.51,0,0.985-0.048,1.426-0.145
			c0.44-0.097,0.913-0.257,1.418-0.48v1.492c-0.448,0.214-0.901,0.364-1.359,0.453C83.18,140.565,82.657,140.609,82.068,140.609z
			 M81.732,133.047c-0.583,0-1.051,0.185-1.402,0.555s-0.562,0.909-0.629,1.617h3.922c-0.011-0.714-0.183-1.254-0.516-1.621
			C82.774,133.23,82.315,133.047,81.732,133.047z"/>
		<path style="&st26;" d="M91.896,131.656c0.37,0,0.674,0.026,0.914,0.078l-0.18,1.711c-0.261-0.062-0.531-0.094-0.812-0.094
			c-0.734,0-1.33,0.239-1.785,0.719c-0.456,0.479-0.684,1.102-0.684,1.867v4.516h-1.836v-8.641h1.438l0.242,1.523h0.094
			c0.286-0.516,0.66-0.925,1.121-1.227S91.365,131.656,91.896,131.656z"/>
		<path style="&st26;" d="M93.1,131.812h2l1.758,4.898c0.266,0.698,0.442,1.354,0.531,1.969h0.062
			c0.047-0.286,0.133-0.634,0.258-1.043s0.786-2.351,1.984-5.824h1.984l-3.695,9.789c-0.672,1.797-1.792,2.695-3.359,2.695
			c-0.406,0-0.802-0.044-1.188-0.133v-1.453c0.276,0.062,0.591,0.094,0.945,0.094c0.885,0,1.508-0.513,1.867-1.539l0.32-0.812
			L93.1,131.812z"/>
		<path style="&st26;" d="M102.717,139.477c0-0.38,0.099-0.672,0.297-0.875s0.484-0.305,0.859-0.305c0.38,0,0.669,0.105,0.867,0.316
			s0.297,0.499,0.297,0.863c0,0.37-0.101,0.663-0.301,0.879c-0.201,0.216-0.488,0.324-0.863,0.324s-0.662-0.106-0.859-0.32
			C102.815,140.146,102.717,139.852,102.717,139.477z"/>
		<path style="&st26;" d="M106.506,144.297c-0.552,0-1.01-0.065-1.375-0.195v-1.453c0.354,0.094,0.716,0.141,1.086,0.141
			c0.781,0,1.172-0.442,1.172-1.328v-9.648h1.836v9.773c0,0.891-0.233,1.565-0.699,2.023
			C108.059,144.067,107.386,144.297,106.506,144.297z M107.279,129.523c0-0.328,0.09-0.581,0.27-0.758s0.436-0.266,0.77-0.266
			c0.323,0,0.574,0.089,0.754,0.266s0.27,0.43,0.27,0.758c0,0.312-0.09,0.559-0.27,0.738s-0.431,0.27-0.754,0.27
			c-0.333,0-0.59-0.09-0.77-0.27S107.279,129.836,107.279,129.523z"/>
		<path style="&st26;" d="M117.654,137.992c0,0.844-0.308,1.491-0.922,1.941c-0.615,0.45-1.495,0.676-2.641,0.676
			c-1.151,0-2.076-0.175-2.773-0.523V138.5c1.016,0.469,1.961,0.703,2.836,0.703c1.13,0,1.695-0.341,1.695-1.023
			c0-0.219-0.062-0.401-0.188-0.547s-0.331-0.297-0.617-0.453c-0.287-0.156-0.685-0.333-1.195-0.531
			c-0.995-0.386-1.668-0.771-2.02-1.156s-0.527-0.886-0.527-1.5c0-0.739,0.298-1.313,0.895-1.723
			c0.596-0.409,1.407-0.613,2.434-0.613c1.016,0,1.977,0.206,2.883,0.617l-0.594,1.383c-0.933-0.386-1.716-0.578-2.352-0.578
			c-0.969,0-1.453,0.276-1.453,0.828c0,0.271,0.126,0.5,0.379,0.688c0.252,0.188,0.803,0.445,1.652,0.773
			c0.713,0.276,1.231,0.528,1.555,0.758c0.323,0.229,0.562,0.493,0.719,0.793S117.654,137.575,117.654,137.992z"/>
	</g>
	<g style="&st2;">
		<path style="&st26;" d="M317.547,218.774c0-0.328,0.09-0.581,0.27-0.758s0.436-0.266,0.77-0.266c0.323,0,0.574,0.089,0.754,0.266
			s0.27,0.43,0.27,0.758c0,0.312-0.09,0.559-0.27,0.738s-0.431,0.27-0.754,0.27c-0.333,0-0.59-0.09-0.77-0.27
			S317.547,219.087,317.547,218.774z M319.492,229.704h-1.836v-8.641h1.836V229.704z"/>
		<path style="&st26;" d="M329.398,229.704h-1.844v-5.328c0-0.661-0.125-1.155-0.375-1.48s-0.641-0.488-1.172-0.488
			c-0.708,0-1.228,0.23-1.559,0.691s-0.496,1.228-0.496,2.301v4.305h-1.836v-8.641h1.438l0.258,1.133h0.094
			c0.239-0.411,0.587-0.729,1.043-0.953s0.957-0.336,1.504-0.336c1.328,0,2.208,0.453,2.641,1.359h0.125
			c0.255-0.427,0.614-0.761,1.078-1c0.463-0.239,0.995-0.359,1.594-0.359c1.031,0,1.782,0.261,2.254,0.781
			c0.471,0.521,0.707,1.315,0.707,2.383v5.633h-1.836v-5.328c0-0.661-0.126-1.155-0.379-1.48s-0.645-0.488-1.176-0.488
			c-0.714,0-1.236,0.223-1.566,0.668c-0.331,0.445-0.496,1.129-0.496,2.051L329.398,229.704L329.398,229.704z"/>
		<path style="&st26;" d="M342.82,229.704l-0.367-1.203h-0.062c-0.417,0.526-0.836,0.884-1.258,1.074s-0.964,0.285-1.625,0.285
			c-0.849,0-1.512-0.229-1.988-0.688s-0.715-1.106-0.715-1.945c0-0.891,0.331-1.562,0.992-2.016c0.661-0.453,1.669-0.7,3.023-0.742
			l1.492-0.047v-0.461c0-0.552-0.129-0.965-0.387-1.238s-0.658-0.41-1.199-0.41c-0.443,0-0.867,0.065-1.273,0.195
			s-0.797,0.284-1.172,0.461l-0.594-1.312c0.469-0.245,0.981-0.431,1.539-0.559c0.557-0.128,1.083-0.191,1.578-0.191
			c1.099,0,1.928,0.239,2.488,0.719c0.56,0.479,0.84,1.231,0.84,2.258v5.82L342.82,229.704L342.82,229.704z M340.086,228.454
			c0.667,0,1.202-0.187,1.605-0.559c0.403-0.372,0.605-0.895,0.605-1.566v-0.75l-1.109,0.047c-0.865,0.031-1.494,0.176-1.887,0.434
			c-0.394,0.258-0.59,0.652-0.59,1.184c0,0.386,0.114,0.684,0.344,0.895C339.284,228.349,339.627,228.454,340.086,228.454z"/>
		<path style="&st26;" d="M353.992,221.063v1.008l-1.477,0.273c0.135,0.183,0.247,0.406,0.336,0.672
			c0.088,0.266,0.133,0.547,0.133,0.844c0,0.891-0.308,1.591-0.922,2.102c-0.615,0.511-1.461,0.766-2.539,0.766
			c-0.276,0-0.526-0.021-0.75-0.062c-0.396,0.245-0.594,0.531-0.594,0.859c0,0.198,0.092,0.347,0.277,0.445
			c0.185,0.099,0.524,0.148,1.02,0.148h1.508c0.953,0,1.677,0.203,2.172,0.609c0.495,0.406,0.742,0.992,0.742,1.758
			c0,0.979-0.404,1.734-1.211,2.266c-0.808,0.531-1.974,0.797-3.5,0.797c-1.177,0-2.076-0.208-2.695-0.625
			c-0.62-0.417-0.93-1.011-0.93-1.781c0-0.531,0.168-0.978,0.504-1.34s0.806-0.613,1.41-0.754c-0.245-0.104-0.447-0.272-0.605-0.504
			c-0.159-0.231-0.238-0.476-0.238-0.73c0-0.323,0.091-0.597,0.273-0.82c0.182-0.224,0.453-0.445,0.812-0.664
			c-0.448-0.192-0.812-0.507-1.09-0.941c-0.279-0.435-0.418-0.944-0.418-1.527c0-0.938,0.295-1.664,0.887-2.18
			c0.591-0.516,1.434-0.773,2.527-0.773c0.245,0,0.501,0.017,0.77,0.051c0.268,0.034,0.47,0.069,0.605,0.105h2.993V221.063z
			 M347.203,231.048c0,0.396,0.178,0.7,0.535,0.914c0.356,0.214,0.858,0.32,1.504,0.32c1,0,1.745-0.144,2.234-0.43
			s0.734-0.667,0.734-1.141c0-0.375-0.134-0.642-0.402-0.801c-0.269-0.159-0.767-0.238-1.496-0.238h-1.391
			c-0.526,0-0.944,0.124-1.254,0.371C347.358,230.291,347.203,230.626,347.203,231.048z M347.992,223.86
			c0,0.542,0.139,0.958,0.418,1.25c0.278,0.292,0.678,0.438,1.199,0.438c1.062,0,1.594-0.567,1.594-1.703
			c0-0.562-0.132-0.996-0.395-1.301s-0.663-0.457-1.199-0.457c-0.531,0-0.934,0.151-1.207,0.453S347.992,223.282,347.992,223.86z"/>
		<path style="&st26;" d="M359.367,229.86c-1.344,0-2.395-0.392-3.152-1.176s-1.137-1.863-1.137-3.238
			c0-1.411,0.352-2.521,1.055-3.328s1.669-1.211,2.898-1.211c1.141,0,2.042,0.347,2.703,1.039s0.992,1.646,0.992,2.859v0.992h-5.758
			c0.026,0.839,0.252,1.483,0.68,1.934c0.427,0.45,1.028,0.676,1.805,0.676c0.51,0,0.985-0.048,1.426-0.145
			c0.44-0.097,0.913-0.257,1.418-0.48v1.492c-0.448,0.214-0.901,0.364-1.359,0.453C360.479,229.816,359.956,229.86,359.367,229.86z
			 M359.031,222.298c-0.583,0-1.051,0.185-1.402,0.555s-0.562,0.909-0.629,1.617h3.922c-0.011-0.714-0.183-1.254-0.516-1.621
			C360.073,222.481,359.614,222.298,359.031,222.298z"/>
		<path style="&st26;" d="M364.539,228.728c0-0.38,0.099-0.672,0.297-0.875s0.484-0.305,0.859-0.305c0.38,0,0.669,0.105,0.867,0.316
			s0.297,0.499,0.297,0.863c0,0.37-0.101,0.663-0.301,0.879c-0.201,0.216-0.488,0.324-0.863,0.324s-0.662-0.106-0.859-0.32
			C364.638,229.396,364.539,229.103,364.539,228.728z"/>
		<path style="&st26;" d="M373.594,229.86c-1.094,0-1.943-0.394-2.547-1.18h-0.109c0.073,0.729,0.109,1.172,0.109,1.328v3.539
			h-1.836v-12.484h1.484c0.042,0.161,0.127,0.547,0.258,1.156h0.094c0.573-0.875,1.432-1.312,2.578-1.312
			c1.078,0,1.918,0.391,2.52,1.172s0.902,1.878,0.902,3.289s-0.306,2.513-0.918,3.305
			C375.517,229.465,374.672,229.86,373.594,229.86z M373.148,222.407c-0.729,0-1.262,0.214-1.598,0.641s-0.504,1.109-0.504,2.047
			v0.273c0,1.052,0.167,1.813,0.5,2.285s0.877,0.707,1.633,0.707c0.635,0,1.125-0.261,1.469-0.781s0.516-1.263,0.516-2.227
			c0-0.969-0.171-1.702-0.512-2.199C374.311,222.656,373.81,222.407,373.148,222.407z"/>
		<path style="&st26;" d="M386.781,229.704h-1.844v-5.312c0-0.667-0.134-1.164-0.402-1.492c-0.269-0.328-0.694-0.492-1.277-0.492
			c-0.776,0-1.344,0.229-1.703,0.688s-0.539,1.227-0.539,2.305v4.305h-1.836v-8.641h1.438l0.258,1.133h0.094
			c0.26-0.411,0.63-0.729,1.109-0.953s1.01-0.336,1.594-0.336c2.073,0,3.109,1.055,3.109,3.164L386.781,229.704L386.781,229.704z"/>
		<path style="&st26;" d="M396.633,221.063v1.008l-1.477,0.273c0.135,0.183,0.247,0.406,0.336,0.672
			c0.088,0.266,0.133,0.547,0.133,0.844c0,0.891-0.308,1.591-0.922,2.102c-0.615,0.511-1.461,0.766-2.539,0.766
			c-0.276,0-0.526-0.021-0.75-0.062c-0.396,0.245-0.594,0.531-0.594,0.859c0,0.198,0.092,0.347,0.277,0.445
			c0.185,0.099,0.524,0.148,1.02,0.148h1.508c0.953,0,1.677,0.203,2.172,0.609c0.495,0.406,0.742,0.992,0.742,1.758
			c0,0.979-0.404,1.734-1.211,2.266c-0.808,0.531-1.974,0.797-3.5,0.797c-1.177,0-2.076-0.208-2.695-0.625
			c-0.62-0.417-0.93-1.011-0.93-1.781c0-0.531,0.168-0.978,0.504-1.34s0.806-0.613,1.41-0.754c-0.245-0.104-0.447-0.272-0.605-0.504
			c-0.159-0.231-0.238-0.476-0.238-0.73c0-0.323,0.091-0.597,0.273-0.82c0.182-0.224,0.453-0.445,0.812-0.664
			c-0.448-0.192-0.812-0.507-1.09-0.941c-0.279-0.435-0.418-0.944-0.418-1.527c0-0.938,0.295-1.664,0.887-2.18
			c0.591-0.516,1.434-0.773,2.527-0.773c0.245,0,0.501,0.017,0.77,0.051c0.268,0.034,0.47,0.069,0.605,0.105h2.993V221.063z
			 M389.844,231.048c0,0.396,0.178,0.7,0.535,0.914c0.356,0.214,0.858,0.32,1.504,0.32c1,0,1.745-0.144,2.234-0.43
			s0.734-0.667,0.734-1.141c0-0.375-0.134-0.642-0.402-0.801c-0.269-0.159-0.767-0.238-1.496-0.238h-1.391
			c-0.526,0-0.944,0.124-1.254,0.371C389.999,230.291,389.844,230.626,389.844,231.048z M390.633,223.86
			c0,0.542,0.139,0.958,0.418,1.25c0.278,0.292,0.678,0.438,1.199,0.438c1.062,0,1.594-0.567,1.594-1.703
			c0-0.562-0.132-0.996-0.395-1.301s-0.663-0.457-1.199-0.457c-0.531,0-0.934,0.151-1.207,0.453S390.633,223.282,390.633,223.86z"/>
	</g>
</g>
</svg>
