<?xml version="1.0" encoding="utf-8"?>
<!-- Generator: Adobe Illustrator 20.1.0, SVG Export Plug-In . SVG Version: 6.00 Build 0)  -->
<!DOCTYPE svg PUBLIC "-//W3C//DTD SVG 1.1//EN" "http://www.w3.org/Graphics/SVG/1.1/DTD/svg11.dtd" [
	<!ENTITY st0 "fill:#FFFFFF;stroke:#F7F6F6;stroke-miterlimit:10;">
	<!ENTITY st1 "fill:none;stroke:#F7F6F6;stroke-miterlimit:10;">
	<!ENTITY st2 "enable-background:new    ;">
	<!ENTITY st3 "fill:#434343;">
	<!ENTITY st4 "fill:#595A5C;">
	<!ENTITY st5 "opacity:0.33;fill:url(#SVGID_1_);enable-background:new    ;">
	<!ENTITY st6 "fill:none;">
	<!ENTITY st7 "opacity:0.33;fill:url(#SVGID_2_);enable-background:new    ;">
	<!ENTITY st8 "opacity:0.33;fill:url(#SVGID_3_);enable-background:new    ;">
	<!ENTITY st9 "fill:none;stroke:#56575B;stroke-width:0.5;stroke-miterlimit:10;">
	<!ENTITY st10 "opacity:0.33;fill:url(#SVGID_4_);enable-background:new    ;">
	<!ENTITY st11 "opacity:0.33;fill:url(#SVGID_5_);enable-background:new    ;">
	<!ENTITY st12 "opacity:0.33;fill:url(#SVGID_6_);enable-background:new    ;">
	<!ENTITY st13 "opacity:0.33;fill:url(#SVGID_7_);enable-background:new    ;">
	<!ENTITY st14 "opacity:0.33;fill:url(#SVGID_8_);enable-background:new    ;">
	<!ENTITY st15 "opacity:0.33;fill:url(#SVGID_9_);enable-background:new    ;">
	<!ENTITY st16 "opacity:0.33;fill:url(#SVGID_10_);enable-background:new    ;">
	<!ENTITY st17 "opacity:0.33;fill:url(#SVGID_11_);enable-background:new    ;">
	<!ENTITY st18 "opacity:0.33;fill:url(#SVGID_12_);enable-background:new    ;">
	<!ENTITY st19 "opacity:0.33;fill:url(#SVGID_13_);enable-background:new    ;">
	<!ENTITY st20 "opacity:0.33;fill:url(#SVGID_14_);enable-background:new    ;">
	<!ENTITY st21 "opacity:0.33;fill:url(#SVGID_15_);enable-background:new    ;">
	<!ENTITY st22 "opacity:0.33;fill:url(#SVGID_16_);enable-background:new    ;">
	<!ENTITY st23 "opacity:0.33;fill:url(#SVGID_17_);enable-background:new    ;">
	<!ENTITY st24 "fill:none;stroke:#929497;stroke-width:0.8449;stroke-miterlimit:10;">
	<!ENTITY st25 "fill:none;stroke:#E4E4E4;stroke-width:2;stroke-miterlimit:10;">
	<!ENTITY st26 "fill:#FFFFFF;">
]>
<svg version="1.1" xmlns="http://www.w3.org/2000/svg" xmlns:xlink="http://www.w3.org/1999/xlink" x="0px" y="0px"
	 viewBox="0 0 473 315.6" style="enable-background:new 0 0 473 315.6;" xml:space="preserve">
<g id="Layer_1">
	<rect x="29" y="2.8" style="&st0;" width="440.9" height="285.3"/>
	<line style="&st1;" x1="29" y1="244.7" x2="469.9" y2="244.7"/>
	<line style="&st1;" x1="29" y1="266.7" x2="469.9" y2="266.7"/>
	<line style="&st1;" x1="51" y1="288.1" x2="51" y2="222.7"/>
	<line style="&st1;" x1="73" y1="288.1" x2="73" y2="222.7"/>
	<line style="&st1;" x1="95.1" y1="288.1" x2="95.1" y2="222.7"/>
	<line style="&st1;" x1="117.1" y1="288.1" x2="117.1" y2="222.7"/>
	<line style="&st1;" x1="139.1" y1="288.1" x2="139.1" y2="222.7"/>
	<line style="&st1;" x1="161.1" y1="288.1" x2="161.1" y2="222.7"/>
	<line style="&st1;" x1="183.2" y1="288.1" x2="183.2" y2="222.7"/>
	<line style="&st1;" x1="205.2" y1="288.1" x2="205.2" y2="222.7"/>
	<line style="&st1;" x1="227.2" y1="288.1" x2="227.2" y2="222.7"/>
	<line style="&st1;" x1="249.2" y1="288.1" x2="249.2" y2="222.7"/>
	<line style="&st1;" x1="271.3" y1="288.1" x2="271.3" y2="222.7"/>
	<line style="&st1;" x1="293.3" y1="288.1" x2="293.3" y2="222.7"/>
	<line style="&st1;" x1="315.3" y1="288.1" x2="315.3" y2="222.7"/>
	<line style="&st1;" x1="337.3" y1="288.1" x2="337.3" y2="222.7"/>
	<line style="&st1;" x1="359.4" y1="288.1" x2="359.4" y2="222.7"/>
	<line style="&st1;" x1="381.4" y1="288.1" x2="381.4" y2="222.7"/>
	<line style="&st1;" x1="403.4" y1="288.1" x2="403.4" y2="222.7"/>
	<line style="&st1;" x1="425.4" y1="288.1" x2="425.4" y2="222.7"/>
	<line style="&st1;" x1="447.5" y1="288.1" x2="447.5" y2="222.7"/>
	<line style="&st1;" x1="29" y1="24.5" x2="469.9" y2="24.5"/>
	<line style="&st1;" x1="29" y1="46.5" x2="469.9" y2="46.5"/>
	<line style="&st1;" x1="29" y1="68.5" x2="469.9" y2="68.5"/>
	<line style="&st1;" x1="29" y1="90.5" x2="469.9" y2="90.5"/>
	<line style="&st1;" x1="29" y1="112.6" x2="469.9" y2="112.6"/>
	<line style="&st1;" x1="29" y1="134.6" x2="469.9" y2="134.6"/>
	<line style="&st1;" x1="29" y1="157.1" x2="469.9" y2="157.1"/>
	<line style="&st1;" x1="29" y1="178.6" x2="469.9" y2="178.6"/>
	<line style="&st1;" x1="29" y1="200.7" x2="469.9" y2="200.7"/>
	<line style="&st1;" x1="29" y1="222.7" x2="469.9" y2="222.7"/>
	<line style="&st1;" x1="51" y1="231.5" x2="51" y2="2.8"/>
	<line style="&st1;" x1="73" y1="231.5" x2="73" y2="2.8"/>
	<line style="&st1;" x1="95.1" y1="231.5" x2="95.1" y2="2.8"/>
	<line style="&st1;" x1="117.1" y1="231.5" x2="117.1" y2="2.8"/>
	<line style="&st1;" x1="139.1" y1="231.5" x2="139.1" y2="2.8"/>
	<line style="&st1;" x1="161.1" y1="231.5" x2="161.1" y2="2.8"/>
	<line style="&st1;" x1="183.2" y1="231.5" x2="183.2" y2="2.8"/>
	<line style="&st1;" x1="205.2" y1="231.5" x2="205.2" y2="2.8"/>
	<line style="&st1;" x1="227.2" y1="231.5" x2="227.2" y2="2.8"/>
	<line style="&st1;" x1="249.2" y1="231.5" x2="249.2" y2="2.8"/>
	<line style="&st1;" x1="271.3" y1="231.5" x2="271.3" y2="2.8"/>
	<line style="&st1;" x1="293.3" y1="231.5" x2="293.3" y2="2.8"/>
	<line style="&st1;" x1="315.3" y1="231.5" x2="315.3" y2="2.8"/>
	<line style="&st1;" x1="337.3" y1="231.5" x2="337.3" y2="2.8"/>
	<line style="&st1;" x1="359.4" y1="231.5" x2="359.4" y2="2.8"/>
	<line style="&st1;" x1="381.4" y1="231.5" x2="381.4" y2="2.8"/>
	<line style="&st1;" x1="403.4" y1="231.5" x2="403.4" y2="2.8"/>
	<line style="&st1;" x1="425.4" y1="231.5" x2="425.4" y2="2.8"/>
	<line style="&st1;" x1="447.5" y1="231.5" x2="447.5" y2="2.8"/>
	<g style="&st2;">
		<path style="&st3;" d="M238.748,312.353h-1.328V302.11h-3.617v-1.18h8.562v1.18h-3.617V312.353z"/>
		<path style="&st3;" d="M243.779,301.47c0-0.297,0.072-0.515,0.219-0.652c0.146-0.138,0.328-0.207,0.547-0.207
			c0.208,0,0.388,0.07,0.539,0.211c0.15,0.141,0.227,0.356,0.227,0.648s-0.076,0.509-0.227,0.652
			c-0.151,0.144-0.331,0.215-0.539,0.215c-0.219,0-0.401-0.071-0.547-0.215C243.852,301.979,243.779,301.762,243.779,301.47z
			 M245.186,312.353h-1.297v-8.562h1.297V312.353z"/>
		<path style="&st3;" d="M258.85,312.353v-5.57c0-0.683-0.146-1.194-0.438-1.535c-0.292-0.341-0.745-0.512-1.359-0.512
			c-0.808,0-1.404,0.231-1.789,0.695c-0.386,0.464-0.578,1.177-0.578,2.141v4.781h-1.297v-5.57c0-0.683-0.146-1.194-0.438-1.535
			c-0.292-0.341-0.748-0.512-1.367-0.512c-0.812,0-1.408,0.243-1.785,0.73c-0.378,0.487-0.566,1.285-0.566,2.395v4.492h-1.297
			v-8.562h1.055l0.211,1.172h0.062c0.244-0.417,0.59-0.742,1.035-0.977s0.943-0.352,1.496-0.352c1.338,0,2.213,0.484,2.625,1.453
			h0.062c0.255-0.448,0.625-0.802,1.109-1.062s1.036-0.391,1.656-0.391c0.969,0,1.693,0.249,2.176,0.746
			c0.481,0.497,0.723,1.293,0.723,2.387v5.586H258.85z"/>
		<path style="&st3;" d="M266.436,312.509c-1.266,0-2.265-0.386-2.996-1.156c-0.732-0.771-1.098-1.841-1.098-3.211
			c0-1.38,0.34-2.477,1.02-3.289s1.592-1.219,2.738-1.219c1.072,0,1.922,0.353,2.547,1.059s0.938,1.637,0.938,2.793v0.82h-5.898
			c0.025,1.005,0.279,1.769,0.762,2.289c0.481,0.521,1.16,0.781,2.035,0.781c0.922,0,1.833-0.192,2.734-0.578v1.156
			c-0.459,0.198-0.893,0.34-1.301,0.426C267.507,312.466,267.014,312.509,266.436,312.509z M266.084,304.72
			c-0.688,0-1.236,0.224-1.645,0.672c-0.409,0.448-0.65,1.067-0.723,1.859h4.477c0-0.817-0.183-1.444-0.547-1.879
			C267.281,304.938,266.761,304.72,266.084,304.72z"/>
	</g>
	<g style="&st2;">
		<path style="&st3;" d="M7.38,170.538h4.75v1.328H0.708v-3.133c0-1.401,0.269-2.437,0.805-3.105s1.344-1.004,2.422-1.004
			c1.511,0,2.531,0.766,3.062,2.297l5.133-3.102v1.57l-4.75,2.766V170.538z M6.239,170.538v-1.82c0-0.938-0.187-1.625-0.559-2.062
			s-0.931-0.656-1.676-0.656c-0.755,0-1.3,0.223-1.633,0.668s-0.5,1.16-0.5,2.145v1.727H6.239z"/>
		<path style="&st3;" d="M12.286,158.554c0,1.266-0.386,2.265-1.156,2.996s-1.841,1.098-3.211,1.098c-1.38,0-2.477-0.34-3.289-1.02
			s-1.219-1.593-1.219-2.738c0-1.073,0.353-1.922,1.059-2.547s1.637-0.938,2.793-0.938h0.82v5.898
			c1.005-0.026,1.769-0.28,2.289-0.762s0.781-1.16,0.781-2.035c0-0.922-0.192-1.833-0.578-2.734h1.156
			c0.198,0.458,0.34,0.892,0.426,1.301C12.243,157.482,12.286,157.976,12.286,158.554z M4.497,158.905
			c0,0.688,0.224,1.235,0.672,1.645s1.067,0.649,1.859,0.723v-4.477c-0.817,0-1.444,0.183-1.879,0.547
			C4.715,157.708,4.497,158.229,4.497,158.905z"/>
		<path style="&st3;" d="M9.794,147.671c0.797,0,1.411,0.297,1.844,0.891s0.648,1.427,0.648,2.5c0,1.136-0.18,2.021-0.539,2.656
			h-1.203c0.208-0.411,0.372-0.853,0.492-1.324c0.12-0.471,0.18-0.926,0.18-1.363c0-0.677-0.108-1.198-0.324-1.562
			c-0.216-0.364-0.546-0.547-0.988-0.547c-0.333,0-0.618,0.145-0.855,0.434s-0.517,0.853-0.84,1.691
			c-0.297,0.797-0.556,1.363-0.777,1.699s-0.473,0.586-0.754,0.75s-0.617,0.246-1.008,0.246c-0.698,0-1.249-0.284-1.652-0.852
			c-0.403-0.567-0.605-1.346-0.605-2.336c0-0.922,0.188-1.823,0.562-2.703l1.055,0.461c-0.354,0.859-0.531,1.638-0.531,2.336
			c0,0.615,0.097,1.078,0.289,1.391s0.458,0.469,0.797,0.469c0.229,0,0.425-0.059,0.586-0.176s0.315-0.306,0.461-0.566
			c0.146-0.26,0.356-0.76,0.633-1.5c0.37-1.016,0.742-1.702,1.117-2.059C8.755,147.85,9.227,147.671,9.794,147.671z"/>
		<path style="&st3;" d="M7.841,138.171c1.396,0,2.485,0.352,3.27,1.055s1.176,1.675,1.176,2.914c0,0.766-0.18,1.445-0.539,2.039
			s-0.875,1.052-1.547,1.375c-0.672,0.323-1.458,0.484-2.359,0.484c-1.396,0-2.483-0.349-3.262-1.047
			c-0.778-0.698-1.168-1.667-1.168-2.906c0-1.198,0.398-2.149,1.195-2.855C5.403,138.524,6.481,138.171,7.841,138.171z
			 M7.841,144.694c1.094,0,1.927-0.219,2.5-0.656s0.859-1.081,0.859-1.93c0-0.849-0.285-1.493-0.855-1.934
			c-0.57-0.44-1.405-0.66-2.504-0.66c-1.089,0-1.915,0.22-2.48,0.66c-0.565,0.44-0.848,1.09-0.848,1.949
			c0,0.849,0.278,1.49,0.836,1.922C5.906,144.479,6.736,144.694,7.841,144.694z"/>
		<path style="&st3;" d="M3.567,134.679h5.555c0.698,0,1.219-0.159,1.562-0.477c0.344-0.317,0.516-0.815,0.516-1.492
			c0-0.896-0.245-1.551-0.734-1.965s-1.289-0.621-2.398-0.621h-4.5v-1.297h8.562v1.07l-1.148,0.188v0.07
			c0.422,0.266,0.745,0.634,0.969,1.105c0.224,0.472,0.336,1.009,0.336,1.613c0,1.042-0.247,1.822-0.742,2.34
			c-0.495,0.519-1.286,0.777-2.375,0.777H3.567V134.679z"/>
		<path style="&st3;" d="M3.411,122.171c0-0.38,0.031-0.721,0.094-1.023l1.203,0.18c-0.078,0.354-0.117,0.667-0.117,0.938
			c0,0.693,0.281,1.285,0.844,1.777s1.263,0.738,2.102,0.738h4.594v1.297H3.567v-1.07l1.586-0.148v-0.062
			c-0.558-0.317-0.987-0.7-1.289-1.148C3.562,123.2,3.411,122.708,3.411,122.171z"/>
		<path style="&st3;" d="M12.286,116.124c0,1.24-0.382,2.199-1.145,2.879s-1.843,1.02-3.238,1.02c-1.433,0-2.539-0.345-3.32-1.035
			c-0.781-0.69-1.172-1.673-1.172-2.949c0-0.411,0.044-0.823,0.133-1.234c0.089-0.411,0.192-0.734,0.312-0.969l1.102,0.398
			c-0.114,0.287-0.21,0.599-0.285,0.938c-0.075,0.339-0.113,0.638-0.113,0.898c0,1.74,1.109,2.609,3.328,2.609
			c1.052,0,1.859-0.212,2.422-0.637c0.562-0.424,0.844-1.053,0.844-1.887c0-0.713-0.153-1.445-0.461-2.195h1.148
			C12.138,114.533,12.286,115.254,12.286,116.124z"/>
		<path style="&st3;" d="M12.286,108.312c0,1.266-0.386,2.265-1.156,2.996c-0.771,0.732-1.841,1.098-3.211,1.098
			c-1.38,0-2.477-0.34-3.289-1.02s-1.219-1.592-1.219-2.738c0-1.073,0.353-1.922,1.059-2.547s1.637-0.938,2.793-0.938h0.82v5.898
			c1.005-0.026,1.769-0.28,2.289-0.762c0.521-0.481,0.781-1.16,0.781-2.035c0-0.922-0.192-1.833-0.578-2.734h1.156
			c0.198,0.458,0.34,0.892,0.426,1.301C12.243,107.24,12.286,107.733,12.286,108.312z M4.497,108.663
			c0,0.688,0.224,1.236,0.672,1.645c0.448,0.409,1.067,0.65,1.859,0.723v-4.477c-0.817,0-1.444,0.183-1.879,0.547
			C4.715,107.465,4.497,107.986,4.497,108.663z"/>
	</g>
	<g style="&st2;">
		<path style="&st4;" d="M229.601,45.281h-2.344v-6.436h-6.582v6.436h-2.334V31.004h2.334v5.84h6.582v-5.84h2.344V45.281z"/>
		<path style="&st4;" d="M238.292,45.281h-2.334V33.006h-4.199v-2.002h10.732v2.002h-4.199V45.281z"/>
		<path style="&st4;" d="M249.61,45.281h-2.334V33.006h-4.199v-2.002h10.732v2.002h-4.199V45.281z"/>
		<path style="&st4;" d="M265.45,35.32c0,1.491-0.488,2.634-1.465,3.428s-2.366,1.191-4.17,1.191h-1.484v5.342h-2.334V31.004h4.111
			c1.784,0,3.12,0.364,4.009,1.094S265.45,33.901,265.45,35.32z M258.331,37.977h1.24c1.198,0,2.077-0.208,2.637-0.625
			c0.561-0.417,0.84-1.067,0.84-1.953c0-0.82-0.25-1.433-0.752-1.836c-0.501-0.403-1.282-0.605-2.344-0.605h-1.621V37.977z"/>
		<path style="&st4;" d="M274.054,31.004l-5.312,14.277h-2.168l5.322-14.277H274.054z"/>
		<path style="&st4;" d="M284.776,45.281h-9.678v-1.738l3.682-3.701c1.088-1.113,1.809-1.902,2.163-2.368
			c0.355-0.466,0.614-0.903,0.776-1.313c0.163-0.41,0.244-0.85,0.244-1.318c0-0.645-0.193-1.152-0.581-1.523
			c-0.387-0.371-0.923-0.557-1.606-0.557c-0.547,0-1.075,0.101-1.587,0.303c-0.511,0.202-1.102,0.566-1.772,1.094l-1.24-1.514
			c0.795-0.671,1.566-1.146,2.314-1.426c0.749-0.28,1.547-0.42,2.393-0.42c1.328,0,2.393,0.347,3.193,1.04s1.201,1.626,1.201,2.798
			c0,0.645-0.115,1.257-0.347,1.836c-0.23,0.579-0.586,1.177-1.064,1.792s-1.274,1.447-2.388,2.495l-2.48,2.402v0.098h6.777V45.281z
			"/>
	</g>
	
		<linearGradient id="SVGID_1_" gradientUnits="userSpaceOnUse" x1="51.05" y1="95.05" x2="138.85" y2="182.85" gradientTransform="matrix(1 0 0 -1 0 318)">
		<stop  offset="0" style="stop-color:#77C3E2"/>
		<stop  offset="1" style="stop-color:#83CAA6"/>
	</linearGradient>
	<rect x="29" y="157.2" style="&st5;" width="131.9" height="43.7"/>
	<rect x="48.2" y="173.4" style="&st6;" width="124.1" height="17"/>
	
		<linearGradient id="SVGID_2_" gradientUnits="userSpaceOnUse" x1="50.85" y1="139.35" x2="138.95" y2="227.45" gradientTransform="matrix(1 0 0 -1 0 318)">
		<stop  offset="0" style="stop-color:#77C3E2"/>
		<stop  offset="1" style="stop-color:#83CAA6"/>
	</linearGradient>
	<rect x="29" y="112.4" style="&st7;" width="131.8" height="44.4"/>
	<rect x="49.3" y="128.3" style="&st6;" width="80.3" height="15"/>
	
		<linearGradient id="SVGID_3_" gradientUnits="userSpaceOnUse" x1="51.05" y1="50.95" x2="138.85" y2="138.75" gradientTransform="matrix(1 0 0 -1 0 318)">
		<stop  offset="0" style="stop-color:#77C3E2"/>
		<stop  offset="1" style="stop-color:#83CAA6"/>
	</linearGradient>
	<rect x="29" y="201.3" style="&st8;" width="131.9" height="43.7"/>
	<rect x="48.2" y="217.5" style="&st6;" width="124.1" height="17"/>
	<polyline style="&st9;" points="463,301 469.2,307.1 463,313.3 	"/>
	<line style="&st9;" x1="279.9" y1="307.1" x2="468.9" y2="307.1"/>
	<line style="&st9;" x1="29.4" y1="307.1" x2="217.6" y2="307.1"/>
	<polyline style="&st9;" points="1.3,10 7.4,3.9 13.5,10 	"/>
	<line style="&st9;" x1="7.4" y1="95.7" x2="7.4" y2="4.2"/>
	<line style="&st9;" x1="7.4" y1="287.4" x2="7.4" y2="188.8"/>
	
		<linearGradient id="SVGID_4_" gradientUnits="userSpaceOnUse" x1="50.85" y1="139.35" x2="138.95" y2="227.45" gradientTransform="matrix(1 0 0 -1 0 318)">
		<stop  offset="0" style="stop-color:#77C3E2"/>
		<stop  offset="1" style="stop-color:#83CAA6"/>
	</linearGradient>
	<rect x="29" y="112.4" style="&st10;" width="131.8" height="44.4"/>
	
		<linearGradient id="SVGID_5_" gradientUnits="userSpaceOnUse" x1="50.85" y1="139.35" x2="138.95" y2="227.45" gradientTransform="matrix(1 0 0 -1 0 318)">
		<stop  offset="0" style="stop-color:#77C3E2"/>
		<stop  offset="1" style="stop-color:#83CAA6"/>
	</linearGradient>
	<rect x="29" y="112.4" style="&st11;" width="131.8" height="44.4"/>
	
		<linearGradient id="SVGID_6_" gradientUnits="userSpaceOnUse" x1="51.05" y1="95.05" x2="138.85" y2="182.85" gradientTransform="matrix(1 0 0 -1 0 318)">
		<stop  offset="0" style="stop-color:#77C3E2"/>
		<stop  offset="1" style="stop-color:#83CAA6"/>
	</linearGradient>
	<rect x="29" y="157.2" style="&st12;" width="131.9" height="43.7"/>
	
		<linearGradient id="SVGID_7_" gradientUnits="userSpaceOnUse" x1="51.05" y1="95.05" x2="138.85" y2="182.85" gradientTransform="matrix(1 0 0 -1 0 318)">
		<stop  offset="0" style="stop-color:#77C3E2"/>
		<stop  offset="1" style="stop-color:#83CAA6"/>
	</linearGradient>
	<rect x="29" y="157.2" style="&st13;" width="131.9" height="43.7"/>
	
		<linearGradient id="SVGID_8_" gradientUnits="userSpaceOnUse" x1="51.05" y1="95.05" x2="138.85" y2="182.85" gradientTransform="matrix(1 0 0 -1 0 318)">
		<stop  offset="0" style="stop-color:#77C3E2"/>
		<stop  offset="1" style="stop-color:#83CAA6"/>
	</linearGradient>
	<rect x="29" y="157.2" style="&st14;" width="131.9" height="43.7"/>
	
		<linearGradient id="SVGID_9_" gradientUnits="userSpaceOnUse" x1="51.05" y1="95.05" x2="138.85" y2="182.85" gradientTransform="matrix(1 0 0 -1 0 318)">
		<stop  offset="0" style="stop-color:#77C3E2"/>
		<stop  offset="1" style="stop-color:#83CAA6"/>
	</linearGradient>
	<rect x="29" y="157.2" style="&st15;" width="131.9" height="43.7"/>
	
		<linearGradient id="SVGID_10_" gradientUnits="userSpaceOnUse" x1="51.05" y1="50.95" x2="138.85" y2="138.75" gradientTransform="matrix(1 0 0 -1 0 318)">
		<stop  offset="0" style="stop-color:#77C3E2"/>
		<stop  offset="1" style="stop-color:#83CAA6"/>
	</linearGradient>
	<rect x="29" y="201.3" style="&st16;" width="131.9" height="43.7"/>
	
		<linearGradient id="SVGID_11_" gradientUnits="userSpaceOnUse" x1="51.05" y1="50.95" x2="138.85" y2="138.75" gradientTransform="matrix(1 0 0 -1 0 318)">
		<stop  offset="0" style="stop-color:#77C3E2"/>
		<stop  offset="1" style="stop-color:#83CAA6"/>
	</linearGradient>
	<rect x="29" y="201.3" style="&st17;" width="131.9" height="43.7"/>
	
		<linearGradient id="SVGID_12_" gradientUnits="userSpaceOnUse" x1="51.05" y1="50.95" x2="138.85" y2="138.75" gradientTransform="matrix(1 0 0 -1 0 318)">
		<stop  offset="0" style="stop-color:#77C3E2"/>
		<stop  offset="1" style="stop-color:#83CAA6"/>
	</linearGradient>
	<rect x="29" y="201.3" style="&st18;" width="131.9" height="43.7"/>
	
		<linearGradient id="SVGID_13_" gradientUnits="userSpaceOnUse" x1="51.05" y1="50.95" x2="138.85" y2="138.75" gradientTransform="matrix(1 0 0 -1 0 318)">
		<stop  offset="0" style="stop-color:#77C3E2"/>
		<stop  offset="1" style="stop-color:#83CAA6"/>
	</linearGradient>
	<rect x="29" y="201.3" style="&st19;" width="131.9" height="43.7"/>
	
		<linearGradient id="SVGID_14_" gradientUnits="userSpaceOnUse" x1="51.05" y1="50.95" x2="138.85" y2="138.75" gradientTransform="matrix(1 0 0 -1 0 318)">
		<stop  offset="0" style="stop-color:#77C3E2"/>
		<stop  offset="1" style="stop-color:#83CAA6"/>
	</linearGradient>
	<rect x="29" y="201.3" style="&st20;" width="131.9" height="43.7"/>
	
		<linearGradient id="SVGID_15_" gradientUnits="userSpaceOnUse" x1="51.05" y1="50.95" x2="138.85" y2="138.75" gradientTransform="matrix(1 0 0 -1 0 318)">
		<stop  offset="0" style="stop-color:#77C3E2"/>
		<stop  offset="1" style="stop-color:#83CAA6"/>
	</linearGradient>
	<rect x="29" y="201.3" style="&st21;" width="131.9" height="43.7"/>
	
		<linearGradient id="SVGID_16_" gradientUnits="userSpaceOnUse" x1="51.05" y1="50.95" x2="138.85" y2="138.75" gradientTransform="matrix(1 0 0 -1 0 318)">
		<stop  offset="0" style="stop-color:#77C3E2"/>
		<stop  offset="1" style="stop-color:#83CAA6"/>
	</linearGradient>
	<rect x="29" y="201.3" style="&st22;" width="131.9" height="43.7"/>
	
		<linearGradient id="SVGID_17_" gradientUnits="userSpaceOnUse" x1="51.05" y1="50.95" x2="138.85" y2="138.75" gradientTransform="matrix(1 0 0 -1 0 318)">
		<stop  offset="0" style="stop-color:#77C3E2"/>
		<stop  offset="1" style="stop-color:#83CAA6"/>
	</linearGradient>
	<rect x="29" y="201.3" style="&st23;" width="131.9" height="43.7"/>
	<line style="&st24;" x1="292.8" y1="70.1" x2="292.8" y2="288.8"/>
	<line style="&st24;" x1="424.8" y1="70.1" x2="424.8" y2="288.8"/>
	<line style="&st24;" x1="160.8" y1="70.1" x2="160.8" y2="288.8"/>
	<path style="&st25;" d="M465.9,288.1H33c-2.2,0-4-1.8-4-4V6.8c0-2.2,1.8-4,4-4h432.9c2.2,0,4,1.8,4,4v277.3
		C469.9,286.3,468.1,288.1,465.9,288.1z"/>
</g>
<g id="Layer_2">
	<g style="&st2;">
		<path style="&st26;" d="M53.328,185.745c-1.344,0-2.395-0.392-3.152-1.176s-1.137-1.863-1.137-3.238
			c0-1.411,0.352-2.521,1.055-3.328s1.669-1.211,2.898-1.211c1.141,0,2.041,0.347,2.703,1.039c0.661,0.692,0.992,1.646,0.992,2.859
			v0.992H50.93c0.025,0.839,0.252,1.483,0.68,1.934c0.427,0.45,1.028,0.676,1.805,0.676c0.51,0,0.985-0.048,1.426-0.145
			c0.439-0.097,0.912-0.257,1.418-0.48v1.492c-0.448,0.214-0.901,0.364-1.359,0.453C54.439,185.701,53.916,185.745,53.328,185.745z
			 M52.992,178.183c-0.584,0-1.051,0.185-1.402,0.555s-0.562,0.909-0.629,1.617h3.922c-0.011-0.714-0.183-1.254-0.516-1.621
			C54.033,178.366,53.575,178.183,52.992,178.183z"/>
		<path style="&st26;" d="M60.695,181.175l-2.898-4.227h2.094l1.969,3.023l1.984-3.023h2.078l-2.906,4.227l3.055,4.414h-2.078
			l-2.133-3.234l-2.125,3.234h-2.078L60.695,181.175z"/>
		<path style="&st26;" d="M72.992,185.589l-0.367-1.203h-0.062c-0.417,0.526-0.836,0.884-1.258,1.074s-0.964,0.285-1.625,0.285
			c-0.85,0-1.512-0.229-1.988-0.688s-0.715-1.106-0.715-1.945c0-0.891,0.33-1.562,0.992-2.016c0.661-0.453,1.669-0.7,3.023-0.742
			l1.492-0.047v-0.461c0-0.552-0.129-0.965-0.387-1.238s-0.658-0.41-1.199-0.41c-0.443,0-0.867,0.065-1.273,0.195
			s-0.797,0.284-1.172,0.461l-0.594-1.312c0.469-0.245,0.981-0.431,1.539-0.559c0.557-0.128,1.083-0.191,1.578-0.191
			c1.099,0,1.928,0.239,2.488,0.719c0.56,0.479,0.84,1.231,0.84,2.258v5.82H72.992z M70.258,184.339
			c0.666,0,1.201-0.187,1.605-0.559c0.403-0.372,0.605-0.895,0.605-1.566v-0.75l-1.109,0.047c-0.865,0.031-1.494,0.176-1.887,0.434
			c-0.394,0.258-0.59,0.652-0.59,1.184c0,0.386,0.114,0.684,0.344,0.895C69.455,184.233,69.799,184.339,70.258,184.339z"/>
		<path style="&st26;" d="M84.148,185.589h-1.844v-5.328c0-0.661-0.125-1.155-0.375-1.48s-0.641-0.488-1.172-0.488
			c-0.709,0-1.229,0.23-1.559,0.691c-0.331,0.461-0.496,1.228-0.496,2.301v4.305h-1.836v-8.641h1.438l0.258,1.133h0.094
			c0.239-0.411,0.587-0.729,1.043-0.953c0.455-0.224,0.957-0.336,1.504-0.336c1.328,0,2.208,0.453,2.641,1.359h0.125
			c0.255-0.427,0.614-0.761,1.078-1c0.463-0.239,0.994-0.359,1.594-0.359c1.031,0,1.782,0.261,2.254,0.781
			c0.471,0.521,0.707,1.315,0.707,2.383v5.633h-1.836v-5.328c0-0.661-0.127-1.155-0.379-1.48c-0.253-0.325-0.645-0.488-1.176-0.488
			c-0.714,0-1.236,0.223-1.566,0.668c-0.331,0.445-0.496,1.129-0.496,2.051V185.589z"/>
		<path style="&st26;" d="M96.547,185.745c-1.094,0-1.943-0.394-2.547-1.18h-0.109c0.072,0.729,0.109,1.172,0.109,1.328v3.539
			h-1.836v-12.484h1.484c0.041,0.161,0.127,0.547,0.258,1.156H94c0.572-0.875,1.432-1.312,2.578-1.312
			c1.078,0,1.918,0.391,2.52,1.172s0.902,1.878,0.902,3.289s-0.307,2.513-0.918,3.305C98.47,185.35,97.625,185.745,96.547,185.745z
			 M96.102,178.292c-0.729,0-1.262,0.214-1.598,0.641S94,180.042,94,180.979v0.273c0,1.052,0.166,1.813,0.5,2.285
			c0.333,0.472,0.877,0.707,1.633,0.707c0.635,0,1.125-0.261,1.469-0.781s0.516-1.263,0.516-2.227c0-0.969-0.171-1.702-0.512-2.199
			C97.264,178.541,96.763,178.292,96.102,178.292z"/>
		<path style="&st26;" d="M103.969,185.589h-1.836v-12.156h1.836V185.589z"/>
		<path style="&st26;" d="M110.367,185.745c-1.344,0-2.395-0.392-3.152-1.176s-1.137-1.863-1.137-3.238
			c0-1.411,0.352-2.521,1.055-3.328s1.669-1.211,2.898-1.211c1.141,0,2.041,0.347,2.703,1.039c0.661,0.692,0.992,1.646,0.992,2.859
			v0.992h-5.758c0.025,0.839,0.252,1.483,0.68,1.934c0.427,0.45,1.028,0.676,1.805,0.676c0.51,0,0.985-0.048,1.426-0.145
			c0.439-0.097,0.912-0.257,1.418-0.48v1.492c-0.448,0.214-0.901,0.364-1.359,0.453
			C111.479,185.701,110.955,185.745,110.367,185.745z M110.031,178.183c-0.584,0-1.051,0.185-1.402,0.555s-0.562,0.909-0.629,1.617
			h3.922c-0.011-0.714-0.183-1.254-0.516-1.621C111.072,178.366,110.614,178.183,110.031,178.183z"/>
		<path style="&st26;" d="M115.539,184.612c0-0.38,0.099-0.672,0.297-0.875c0.197-0.203,0.484-0.305,0.859-0.305
			c0.38,0,0.669,0.105,0.867,0.316c0.197,0.211,0.297,0.499,0.297,0.863c0,0.37-0.101,0.663-0.301,0.879
			c-0.201,0.216-0.488,0.324-0.863,0.324s-0.662-0.106-0.859-0.32C115.638,185.281,115.539,184.987,115.539,184.612z"/>
		<path style="&st26;" d="M123.695,185.745c-1.308,0-2.301-0.382-2.98-1.145s-1.02-1.858-1.02-3.285c0-1.453,0.355-2.57,1.066-3.352
			s1.738-1.172,3.082-1.172c0.911,0,1.731,0.169,2.461,0.508l-0.555,1.477c-0.776-0.302-1.417-0.453-1.922-0.453
			c-1.495,0-2.242,0.992-2.242,2.977c0,0.969,0.186,1.696,0.559,2.184c0.372,0.487,0.918,0.73,1.637,0.73
			c0.817,0,1.591-0.203,2.32-0.609v1.602c-0.328,0.192-0.679,0.331-1.051,0.414C124.678,185.703,124.227,185.745,123.695,185.745z"
			/>
		<path style="&st26;" d="M133.938,183.128c0,0.844-0.308,1.491-0.922,1.941c-0.615,0.45-1.495,0.676-2.641,0.676
			c-1.151,0-2.076-0.175-2.773-0.523v-1.586c1.016,0.469,1.961,0.703,2.836,0.703c1.13,0,1.695-0.341,1.695-1.023
			c0-0.219-0.062-0.401-0.188-0.547s-0.331-0.297-0.617-0.453c-0.287-0.156-0.686-0.333-1.195-0.531
			c-0.995-0.386-1.668-0.771-2.02-1.156s-0.527-0.886-0.527-1.5c0-0.739,0.298-1.313,0.895-1.723
			c0.596-0.409,1.407-0.613,2.434-0.613c1.016,0,1.977,0.206,2.883,0.617l-0.594,1.383c-0.933-0.386-1.717-0.578-2.352-0.578
			c-0.969,0-1.453,0.276-1.453,0.828c0,0.271,0.126,0.5,0.379,0.688c0.252,0.188,0.803,0.445,1.652,0.773
			c0.713,0.276,1.231,0.528,1.555,0.758c0.322,0.229,0.562,0.493,0.719,0.793S133.938,182.711,133.938,183.128z"/>
		<path style="&st26;" d="M141.727,183.128c0,0.844-0.308,1.491-0.922,1.941c-0.615,0.45-1.495,0.676-2.641,0.676
			c-1.151,0-2.076-0.175-2.773-0.523v-1.586c1.016,0.469,1.961,0.703,2.836,0.703c1.13,0,1.695-0.341,1.695-1.023
			c0-0.219-0.062-0.401-0.188-0.547s-0.331-0.297-0.617-0.453c-0.287-0.156-0.686-0.333-1.195-0.531
			c-0.995-0.386-1.668-0.771-2.02-1.156s-0.527-0.886-0.527-1.5c0-0.739,0.298-1.313,0.895-1.723
			c0.596-0.409,1.407-0.613,2.434-0.613c1.016,0,1.977,0.206,2.883,0.617l-0.594,1.383c-0.933-0.386-1.717-0.578-2.352-0.578
			c-0.969,0-1.453,0.276-1.453,0.828c0,0.271,0.126,0.5,0.379,0.688c0.252,0.188,0.803,0.445,1.652,0.773
			c0.713,0.276,1.231,0.528,1.555,0.758c0.322,0.229,0.562,0.493,0.719,0.793S141.727,182.711,141.727,183.128z"/>
	</g>
	<g style="&st2;">
		<path style="&st26;" d="M49.769,144.297c-0.552,0-1.01-0.065-1.375-0.195v-1.453c0.354,0.094,0.717,0.141,1.086,0.141
			c0.781,0,1.172-0.442,1.172-1.328v-9.648h1.836v9.773c0,0.891-0.233,1.565-0.699,2.023S50.648,144.297,49.769,144.297z
			 M50.542,129.523c0-0.328,0.09-0.581,0.27-0.758s0.437-0.266,0.77-0.266c0.323,0,0.574,0.089,0.754,0.266s0.27,0.43,0.27,0.758
			c0,0.312-0.09,0.559-0.27,0.738s-0.431,0.27-0.754,0.27c-0.333,0-0.59-0.09-0.77-0.27S50.542,129.836,50.542,129.523z"/>
		<path style="&st26;" d="M58.011,140.609c-1.067,0-1.903-0.392-2.508-1.176s-0.906-1.879-0.906-3.285s0.308-2.507,0.922-3.301
			s1.461-1.191,2.539-1.191c0.542,0,1.027,0.101,1.457,0.301s0.813,0.53,1.152,0.988h0.062l0.203-1.133h1.523v12.484h-1.844v-3.664
			c0-0.229,0.011-0.472,0.031-0.727s0.039-0.45,0.055-0.586h-0.102C60.055,140.18,59.193,140.609,58.011,140.609z M58.534,139.141
			c0.771,0,1.324-0.223,1.66-0.668s0.504-1.118,0.504-2.02v-0.289c0-1.067-0.173-1.836-0.52-2.305s-0.905-0.703-1.676-0.703
			c-0.656,0-1.156,0.261-1.5,0.781s-0.516,1.269-0.516,2.242C56.487,138.153,57.17,139.141,58.534,139.141z"/>
		<path style="&st26;" d="M71.175,140.453l-0.258-1.133h-0.094c-0.255,0.401-0.618,0.716-1.09,0.945s-1.009,0.344-1.613,0.344
			c-1.047,0-1.828-0.261-2.344-0.781s-0.773-1.31-0.773-2.367v-5.648h1.852v5.328c0,0.661,0.136,1.157,0.406,1.488
			s0.695,0.496,1.273,0.496c0.771,0,1.337-0.23,1.699-0.691s0.543-1.233,0.543-2.316v-4.305h1.844v8.641H71.175z"/>
		<path style="&st26;" d="M79.011,140.609c-1.344,0-2.395-0.392-3.152-1.176s-1.137-1.863-1.137-3.238
			c0-1.411,0.352-2.521,1.055-3.328s1.669-1.211,2.898-1.211c1.141,0,2.042,0.347,2.703,1.039s0.992,1.646,0.992,2.859v0.992h-5.758
			c0.026,0.839,0.253,1.483,0.68,1.934s1.028,0.676,1.805,0.676c0.511,0,0.985-0.048,1.426-0.145s0.913-0.257,1.418-0.48v1.492
			c-0.448,0.214-0.901,0.364-1.359,0.453S79.6,140.609,79.011,140.609z M78.675,133.047c-0.583,0-1.051,0.185-1.402,0.555
			s-0.562,0.909-0.629,1.617h3.922c-0.011-0.714-0.183-1.254-0.516-1.621S79.258,133.047,78.675,133.047z"/>
		<path style="&st26;" d="M88.839,131.656c0.37,0,0.675,0.026,0.914,0.078l-0.18,1.711c-0.261-0.062-0.531-0.094-0.812-0.094
			c-0.734,0-1.329,0.239-1.785,0.719s-0.684,1.102-0.684,1.867v4.516h-1.836v-8.641h1.438l0.242,1.523h0.094
			c0.286-0.516,0.66-0.925,1.121-1.227S88.308,131.656,88.839,131.656z"/>
		<path style="&st26;" d="M90.042,131.812h2l1.758,4.898c0.266,0.698,0.442,1.354,0.531,1.969h0.062
			c0.047-0.286,0.133-0.634,0.258-1.043s0.786-2.351,1.984-5.824h1.984l-3.695,9.789c-0.672,1.797-1.792,2.695-3.359,2.695
			c-0.406,0-0.802-0.044-1.188-0.133v-1.453c0.276,0.062,0.591,0.094,0.945,0.094c0.886,0,1.508-0.513,1.867-1.539l0.32-0.812
			L90.042,131.812z"/>
		<path style="&st26;" d="M99.659,139.477c0-0.38,0.099-0.672,0.297-0.875s0.484-0.305,0.859-0.305c0.38,0,0.669,0.105,0.867,0.316
			s0.297,0.499,0.297,0.863c0,0.37-0.101,0.663-0.301,0.879s-0.488,0.324-0.863,0.324s-0.661-0.106-0.859-0.32
			S99.659,139.852,99.659,139.477z"/>
		<path style="&st26;" d="M103.448,144.297c-0.552,0-1.01-0.065-1.375-0.195v-1.453c0.354,0.094,0.717,0.141,1.086,0.141
			c0.781,0,1.172-0.442,1.172-1.328v-9.648h1.836v9.773c0,0.891-0.233,1.565-0.699,2.023S104.328,144.297,103.448,144.297z
			 M104.222,129.523c0-0.328,0.09-0.581,0.27-0.758s0.437-0.266,0.77-0.266c0.323,0,0.574,0.089,0.754,0.266s0.27,0.43,0.27,0.758
			c0,0.312-0.09,0.559-0.27,0.738s-0.431,0.27-0.754,0.27c-0.333,0-0.59-0.09-0.77-0.27S104.222,129.836,104.222,129.523z"/>
		<path style="&st26;" d="M114.597,137.992c0,0.844-0.308,1.491-0.922,1.941s-1.495,0.676-2.641,0.676
			c-1.151,0-2.075-0.175-2.773-0.523V138.5c1.016,0.469,1.961,0.703,2.836,0.703c1.13,0,1.695-0.341,1.695-1.023
			c0-0.219-0.062-0.401-0.188-0.547s-0.331-0.297-0.617-0.453s-0.685-0.333-1.195-0.531c-0.995-0.386-1.668-0.771-2.02-1.156
			s-0.527-0.886-0.527-1.5c0-0.739,0.298-1.313,0.895-1.723s1.407-0.613,2.434-0.613c1.016,0,1.977,0.206,2.883,0.617l-0.594,1.383
			c-0.933-0.386-1.716-0.578-2.352-0.578c-0.969,0-1.453,0.276-1.453,0.828c0,0.271,0.126,0.5,0.379,0.688s0.804,0.445,1.652,0.773
			c0.714,0.276,1.231,0.528,1.555,0.758s0.562,0.493,0.719,0.793S114.597,137.575,114.597,137.992z"/>
	</g>
	<g style="&st2;">
		<path style="&st26;" d="M49.445,218.774c0-0.328,0.09-0.581,0.27-0.758s0.436-0.266,0.77-0.266c0.322,0,0.574,0.089,0.754,0.266
			s0.27,0.43,0.27,0.758c0,0.312-0.09,0.559-0.27,0.738s-0.432,0.27-0.754,0.27c-0.334,0-0.59-0.09-0.77-0.27
			S49.445,219.087,49.445,218.774z M51.391,229.704h-1.836v-8.641h1.836V229.704z"/>
		<path style="&st26;" d="M61.297,229.704h-1.844v-5.328c0-0.661-0.125-1.155-0.375-1.48s-0.641-0.488-1.172-0.488
			c-0.709,0-1.229,0.23-1.559,0.691c-0.331,0.461-0.496,1.228-0.496,2.301v4.305h-1.836v-8.641h1.438l0.258,1.133h0.094
			c0.239-0.411,0.587-0.729,1.043-0.953c0.455-0.224,0.957-0.336,1.504-0.336c1.328,0,2.208,0.453,2.641,1.359h0.125
			c0.255-0.427,0.614-0.761,1.078-1c0.463-0.239,0.994-0.359,1.594-0.359c1.031,0,1.782,0.261,2.254,0.781
			c0.471,0.521,0.707,1.315,0.707,2.383v5.633h-1.836v-5.328c0-0.661-0.127-1.155-0.379-1.48c-0.253-0.325-0.645-0.488-1.176-0.488
			c-0.714,0-1.236,0.223-1.566,0.668c-0.331,0.445-0.496,1.129-0.496,2.051V229.704z"/>
		<path style="&st26;" d="M74.719,229.704l-0.367-1.203h-0.062c-0.417,0.526-0.836,0.884-1.258,1.074s-0.964,0.285-1.625,0.285
			c-0.85,0-1.512-0.229-1.988-0.688s-0.715-1.106-0.715-1.945c0-0.891,0.33-1.562,0.992-2.016c0.661-0.453,1.669-0.7,3.023-0.742
			l1.492-0.047v-0.461c0-0.552-0.129-0.965-0.387-1.238s-0.658-0.41-1.199-0.41c-0.443,0-0.867,0.065-1.273,0.195
			s-0.797,0.284-1.172,0.461l-0.594-1.312c0.469-0.245,0.981-0.431,1.539-0.559c0.557-0.128,1.083-0.191,1.578-0.191
			c1.099,0,1.928,0.239,2.488,0.719c0.56,0.479,0.84,1.231,0.84,2.258v5.82H74.719z M71.984,228.454
			c0.666,0,1.201-0.187,1.605-0.559c0.403-0.372,0.605-0.895,0.605-1.566v-0.75l-1.109,0.047c-0.865,0.031-1.494,0.176-1.887,0.434
			c-0.394,0.258-0.59,0.652-0.59,1.184c0,0.386,0.114,0.684,0.344,0.895C71.182,228.349,71.525,228.454,71.984,228.454z"/>
		<path style="&st26;" d="M85.891,221.063v1.008l-1.477,0.273c0.135,0.183,0.247,0.406,0.336,0.672
			c0.088,0.266,0.133,0.547,0.133,0.844c0,0.891-0.308,1.591-0.922,2.102c-0.615,0.511-1.461,0.766-2.539,0.766
			c-0.276,0-0.526-0.021-0.75-0.062c-0.396,0.245-0.594,0.531-0.594,0.859c0,0.198,0.092,0.347,0.277,0.445
			c0.185,0.099,0.524,0.148,1.02,0.148h1.508c0.953,0,1.677,0.203,2.172,0.609c0.494,0.406,0.742,0.992,0.742,1.758
			c0,0.979-0.404,1.734-1.211,2.266c-0.808,0.531-1.975,0.797-3.5,0.797c-1.178,0-2.076-0.208-2.695-0.625
			c-0.62-0.417-0.93-1.011-0.93-1.781c0-0.531,0.168-0.978,0.504-1.34s0.806-0.613,1.41-0.754c-0.245-0.104-0.447-0.272-0.605-0.504
			c-0.159-0.231-0.238-0.476-0.238-0.73c0-0.323,0.091-0.597,0.273-0.82c0.182-0.224,0.453-0.445,0.812-0.664
			c-0.448-0.192-0.812-0.507-1.09-0.941c-0.279-0.435-0.418-0.944-0.418-1.527c0-0.938,0.295-1.664,0.887-2.18
			c0.591-0.516,1.434-0.773,2.527-0.773c0.244,0,0.501,0.017,0.77,0.051c0.268,0.034,0.47,0.069,0.605,0.105H85.891z
			 M79.102,231.048c0,0.396,0.178,0.7,0.535,0.914c0.356,0.214,0.857,0.32,1.504,0.32c1,0,1.744-0.144,2.234-0.43
			c0.489-0.286,0.734-0.667,0.734-1.141c0-0.375-0.135-0.642-0.402-0.801c-0.269-0.159-0.768-0.238-1.496-0.238H80.82
			c-0.526,0-0.944,0.124-1.254,0.371C79.256,230.291,79.102,230.626,79.102,231.048z M79.891,223.86c0,0.542,0.139,0.958,0.418,1.25
			c0.278,0.292,0.678,0.438,1.199,0.438c1.062,0,1.594-0.567,1.594-1.703c0-0.562-0.132-0.996-0.395-1.301
			c-0.264-0.305-0.663-0.457-1.199-0.457c-0.531,0-0.934,0.151-1.207,0.453S79.891,223.282,79.891,223.86z"/>
		<path style="&st26;" d="M91.266,229.86c-1.344,0-2.395-0.392-3.152-1.176s-1.137-1.863-1.137-3.238
			c0-1.411,0.352-2.521,1.055-3.328s1.669-1.211,2.898-1.211c1.141,0,2.041,0.347,2.703,1.039c0.661,0.692,0.992,1.646,0.992,2.859
			v0.992h-5.758c0.025,0.839,0.252,1.483,0.68,1.934c0.427,0.45,1.028,0.676,1.805,0.676c0.51,0,0.985-0.048,1.426-0.145
			c0.439-0.097,0.912-0.257,1.418-0.48v1.492c-0.448,0.214-0.901,0.364-1.359,0.453C92.377,229.816,91.854,229.86,91.266,229.86z
			 M90.93,222.298c-0.584,0-1.051,0.185-1.402,0.555s-0.562,0.909-0.629,1.617h3.922c-0.011-0.714-0.183-1.254-0.516-1.621
			C91.971,222.481,91.513,222.298,90.93,222.298z"/>
		<path style="&st26;" d="M96.438,228.728c0-0.38,0.099-0.672,0.297-0.875c0.197-0.203,0.484-0.305,0.859-0.305
			c0.38,0,0.669,0.105,0.867,0.316c0.197,0.211,0.297,0.499,0.297,0.863c0,0.37-0.101,0.663-0.301,0.879
			c-0.201,0.216-0.488,0.324-0.863,0.324s-0.662-0.106-0.859-0.32C96.536,229.396,96.438,229.103,96.438,228.728z"/>
		<path style="&st26;" d="M105.492,229.86c-1.094,0-1.943-0.394-2.547-1.18h-0.109c0.072,0.729,0.109,1.172,0.109,1.328v3.539
			h-1.836v-12.484h1.484c0.041,0.161,0.127,0.547,0.258,1.156h0.094c0.572-0.875,1.432-1.312,2.578-1.312
			c1.078,0,1.918,0.391,2.52,1.172s0.902,1.878,0.902,3.289s-0.307,2.513-0.918,3.305C107.415,229.465,106.57,229.86,105.492,229.86
			z M105.047,222.407c-0.729,0-1.262,0.214-1.598,0.641s-0.504,1.109-0.504,2.047v0.273c0,1.052,0.166,1.813,0.5,2.285
			c0.333,0.472,0.877,0.707,1.633,0.707c0.635,0,1.125-0.261,1.469-0.781s0.516-1.263,0.516-2.227c0-0.969-0.171-1.702-0.512-2.199
			C106.209,222.656,105.708,222.407,105.047,222.407z"/>
		<path style="&st26;" d="M118.68,229.704h-1.844v-5.312c0-0.667-0.135-1.164-0.402-1.492c-0.269-0.328-0.694-0.492-1.277-0.492
			c-0.776,0-1.344,0.229-1.703,0.688s-0.539,1.227-0.539,2.305v4.305h-1.836v-8.641h1.438l0.258,1.133h0.094
			c0.26-0.411,0.63-0.729,1.109-0.953c0.479-0.224,1.01-0.336,1.594-0.336c2.072,0,3.109,1.055,3.109,3.164V229.704z"/>
		<path style="&st26;" d="M128.531,221.063v1.008l-1.477,0.273c0.135,0.183,0.247,0.406,0.336,0.672
			c0.088,0.266,0.133,0.547,0.133,0.844c0,0.891-0.308,1.591-0.922,2.102c-0.615,0.511-1.461,0.766-2.539,0.766
			c-0.276,0-0.526-0.021-0.75-0.062c-0.396,0.245-0.594,0.531-0.594,0.859c0,0.198,0.092,0.347,0.277,0.445
			c0.185,0.099,0.524,0.148,1.02,0.148h1.508c0.953,0,1.677,0.203,2.172,0.609c0.494,0.406,0.742,0.992,0.742,1.758
			c0,0.979-0.404,1.734-1.211,2.266c-0.808,0.531-1.975,0.797-3.5,0.797c-1.178,0-2.076-0.208-2.695-0.625
			c-0.62-0.417-0.93-1.011-0.93-1.781c0-0.531,0.168-0.978,0.504-1.34s0.806-0.613,1.41-0.754c-0.245-0.104-0.447-0.272-0.605-0.504
			c-0.159-0.231-0.238-0.476-0.238-0.73c0-0.323,0.091-0.597,0.273-0.82c0.182-0.224,0.453-0.445,0.812-0.664
			c-0.448-0.192-0.812-0.507-1.09-0.941c-0.279-0.435-0.418-0.944-0.418-1.527c0-0.938,0.295-1.664,0.887-2.18
			c0.591-0.516,1.434-0.773,2.527-0.773c0.244,0,0.501,0.017,0.77,0.051c0.268,0.034,0.47,0.069,0.605,0.105H128.531z
			 M121.742,231.048c0,0.396,0.178,0.7,0.535,0.914c0.356,0.214,0.857,0.32,1.504,0.32c1,0,1.744-0.144,2.234-0.43
			c0.489-0.286,0.734-0.667,0.734-1.141c0-0.375-0.135-0.642-0.402-0.801c-0.269-0.159-0.768-0.238-1.496-0.238h-1.391
			c-0.526,0-0.944,0.124-1.254,0.371C121.896,230.291,121.742,230.626,121.742,231.048z M122.531,223.86
			c0,0.542,0.139,0.958,0.418,1.25c0.278,0.292,0.678,0.438,1.199,0.438c1.062,0,1.594-0.567,1.594-1.703
			c0-0.562-0.132-0.996-0.395-1.301c-0.264-0.305-0.663-0.457-1.199-0.457c-0.531,0-0.934,0.151-1.207,0.453
			S122.531,223.282,122.531,223.86z"/>
	</g>
</g>
</svg>
