<svg xmlns="http://www.w3.org/2000/svg" viewBox="0 0 2000 2000"><title>ZE3kr</title><polygon points="1069.9 0 1383.07 1598.79 922.04 0 1069.9 0" style="fill:#eb8e5e"/><polygon points="2000 0 2000 965.73 1383.07 1598.79 1933.47 0 2000 0" style="fill:#e4b003"/><polygon points="2000 965.73 2000 1197.58 1383.07 1598.79 2000 965.73" style="fill:#0e5b94"/><polygon points="922.04 0 1383.07 1598.79 656.59 0 922.04 0" style="fill:#d01c04"/><polygon points="2000 1362.24 2000 1506.71 1383.07 1598.79 2000 1362.24" style="fill:#0e5b94"/><polygon points="656.59 0 1383.07 1598.79 260.08 0 656.59 0" style="fill:#eb8e5e"/><polygon points="2000 1506.71 2000 1654.58 1383.07 1598.79 2000 1506.71" style="fill:#e0e0de"/><polygon points="1933.47 0 1383.07 1598.79 1785.63 0 1933.47 0" style="fill:#f5d40e"/><polygon points="260.08 0 1383.07 1598.79 985.89 2000 0 2000 0 0 260.08 0" style="fill:#f05909"/><polygon points="1069.9 0 1785.63 0 1383.07 1598.79 1069.9 0" style="fill:#e4b003"/><polygon points="1383.07 1598.79 1661.29 2000 985.89 2000 1383.07 1598.79"/><polygon points="2000 1654.58 2000 2000 1661.29 2000 1383.07 1598.79 2000 1654.58" style="fill:#494645"/><polygon points="2000 1298.39 2000 1362.24 1383.07 1598.79 2000 1298.39" style="fill:#bfb800"/><polygon points="2000 1197.58 2000 1298.39 1383.07 1598.79 2000 1197.58" style="fill:#56b544"/></svg>